<?xml version="1.0" encoding="UTF-8" standalone="no"?>
<!DOCTYPE svg PUBLIC "-//W3C//DTD SVG 1.1//EN" "http://www.w3.org/Graphics/SVG/1.1/DTD/svg11.dtd">
<svg width="100%" height="100%" viewBox="0 0 1800 1000" version="1.1" xmlns="http://www.w3.org/2000/svg" xmlns:xlink="http://www.w3.org/1999/xlink" xml:space="preserve" xmlns:serif="http://www.serif.com/" style="fill-rule:evenodd;clip-rule:evenodd;stroke-linejoin:round;stroke-miterlimit:2;">
    <g id="mx" transform="matrix(2.33918,0,0,2.33977,531.335,701.629)">
        <g transform="matrix(350,0,0,350,-234.85,0)">
            <path d="M0.296,-0.505C0.333,-0.505 0.368,-0.495 0.399,-0.475C0.43,-0.454 0.451,-0.422 0.462,-0.379L0.449,-0.37L0.454,-0.389C0.463,-0.411 0.478,-0.431 0.5,-0.448C0.521,-0.465 0.546,-0.479 0.573,-0.49C0.6,-0.5 0.626,-0.505 0.651,-0.505C0.691,-0.505 0.724,-0.496 0.75,-0.479C0.776,-0.462 0.795,-0.439 0.808,-0.41C0.82,-0.381 0.826,-0.348 0.826,-0.311L0.826,-0.02C0.826,-0.015 0.824,-0.01 0.821,-0.006C0.817,-0.002 0.812,0 0.806,0C0.8,0 0.795,-0.002 0.792,-0.006C0.788,-0.01 0.786,-0.015 0.786,-0.02L0.786,-0.307C0.786,-0.336 0.781,-0.363 0.772,-0.388C0.762,-0.412 0.747,-0.431 0.727,-0.446C0.706,-0.46 0.68,-0.467 0.647,-0.467C0.618,-0.467 0.59,-0.46 0.563,-0.446C0.536,-0.431 0.513,-0.412 0.496,-0.388C0.478,-0.363 0.469,-0.336 0.469,-0.307L0.469,-0.02C0.469,-0.015 0.467,-0.01 0.464,-0.006C0.46,-0.002 0.455,0 0.449,0C0.443,0 0.438,-0.002 0.435,-0.006C0.431,-0.01 0.429,-0.015 0.429,-0.02L0.429,-0.312C0.429,-0.341 0.425,-0.367 0.416,-0.39C0.407,-0.413 0.392,-0.432 0.373,-0.446C0.354,-0.46 0.328,-0.467 0.296,-0.467C0.268,-0.467 0.241,-0.46 0.215,-0.446C0.188,-0.432 0.166,-0.413 0.149,-0.39C0.132,-0.367 0.123,-0.341 0.123,-0.312L0.123,-0.02C0.123,-0.015 0.121,-0.01 0.117,-0.006C0.113,-0.002 0.108,0 0.103,0C0.097,0 0.092,-0.002 0.089,-0.006C0.085,-0.01 0.083,-0.015 0.083,-0.02L0.083,-0.479C0.083,-0.484 0.085,-0.489 0.089,-0.493C0.093,-0.497 0.098,-0.499 0.103,-0.499C0.109,-0.499 0.114,-0.497 0.118,-0.493C0.121,-0.489 0.123,-0.484 0.123,-0.479L0.123,-0.37L0.093,-0.319C0.093,-0.342 0.099,-0.365 0.11,-0.387C0.121,-0.409 0.136,-0.429 0.156,-0.447C0.174,-0.464 0.196,-0.478 0.221,-0.489C0.245,-0.5 0.27,-0.505 0.296,-0.505Z" style="fill-opacity:0.8;fill-rule:nonzero;"/>
        </g>
        <g transform="matrix(350,0,0,350,65.8,0)">
            <path d="M0.061,-0.51C0.068,-0.51 0.073,-0.507 0.077,-0.501L0.438,-0.028C0.441,-0.025 0.442,-0.021 0.442,-0.016C0.442,-0.011 0.44,-0.006 0.437,-0.002C0.433,0.002 0.428,0.004 0.423,0.004C0.417,0.004 0.411,0.001 0.406,-0.005L0.044,-0.477C0.041,-0.48 0.04,-0.484 0.04,-0.489C0.04,-0.495 0.042,-0.5 0.047,-0.504C0.051,-0.508 0.056,-0.51 0.061,-0.51ZM0.061,0.004C0.056,0.004 0.052,0.003 0.048,-0.001C0.044,-0.004 0.042,-0.008 0.042,-0.015C0.042,-0.02 0.043,-0.024 0.046,-0.027L0.221,-0.254L0.245,-0.223L0.077,-0.004C0.073,0.001 0.068,0.004 0.061,0.004ZM0.423,-0.51C0.43,-0.51 0.435,-0.508 0.438,-0.505C0.44,-0.502 0.442,-0.498 0.442,-0.493C0.442,-0.491 0.442,-0.489 0.441,-0.487C0.44,-0.484 0.438,-0.482 0.437,-0.48L0.262,-0.246L0.241,-0.281L0.406,-0.501C0.411,-0.507 0.417,-0.51 0.423,-0.51Z" style="fill-opacity:0.8;fill-rule:nonzero;"/>
        </g>
    </g>
    <g id="_51" serif:id="51" transform="matrix(2.33918,0,0,2.33977,1431.92,793.582)">
        <g transform="matrix(370,0,0,370,-161.505,0)">
            <path d="M0.232,0.007C0.206,0.007 0.179,0.003 0.152,-0.005C0.124,-0.013 0.1,-0.025 0.081,-0.041C0.074,-0.047 0.068,-0.055 0.064,-0.064C0.06,-0.073 0.058,-0.082 0.058,-0.091C0.058,-0.1 0.062,-0.11 0.071,-0.119C0.079,-0.128 0.09,-0.132 0.105,-0.132C0.116,-0.132 0.128,-0.127 0.142,-0.116C0.155,-0.107 0.169,-0.1 0.185,-0.094C0.2,-0.088 0.215,-0.085 0.231,-0.085C0.262,-0.085 0.291,-0.092 0.317,-0.105C0.342,-0.118 0.363,-0.137 0.378,-0.161C0.393,-0.184 0.4,-0.21 0.4,-0.238C0.4,-0.267 0.394,-0.291 0.381,-0.312C0.368,-0.332 0.351,-0.348 0.33,-0.359C0.308,-0.37 0.284,-0.376 0.257,-0.376C0.235,-0.376 0.216,-0.373 0.199,-0.366C0.182,-0.359 0.167,-0.352 0.154,-0.345C0.14,-0.338 0.129,-0.334 0.118,-0.334C0.101,-0.334 0.088,-0.338 0.079,-0.346C0.07,-0.353 0.064,-0.363 0.062,-0.374C0.059,-0.385 0.059,-0.395 0.06,-0.404L0.095,-0.66C0.097,-0.671 0.102,-0.681 0.112,-0.689C0.121,-0.696 0.132,-0.7 0.145,-0.7L0.438,-0.7C0.451,-0.7 0.463,-0.696 0.472,-0.687C0.481,-0.678 0.485,-0.666 0.485,-0.653C0.485,-0.64 0.481,-0.629 0.472,-0.62C0.463,-0.611 0.451,-0.607 0.438,-0.607L0.17,-0.607L0.181,-0.616L0.149,-0.396L0.134,-0.426C0.14,-0.433 0.15,-0.439 0.165,-0.446C0.179,-0.452 0.195,-0.457 0.214,-0.462C0.232,-0.466 0.25,-0.468 0.269,-0.468C0.313,-0.468 0.353,-0.458 0.388,-0.439C0.423,-0.419 0.45,-0.392 0.47,-0.357C0.49,-0.322 0.5,-0.283 0.5,-0.239C0.5,-0.204 0.493,-0.172 0.479,-0.142C0.465,-0.112 0.446,-0.086 0.421,-0.064C0.396,-0.041 0.368,-0.024 0.336,-0.012C0.303,0.001 0.269,0.007 0.232,0.007Z" style="fill:rgb(0,180,120);fill-rule:nonzero;"/>
        </g>
        <g transform="matrix(370,0,0,370,30.525,0)">
            <path d="M0.218,0C0.203,0 0.19,-0.005 0.18,-0.015C0.17,-0.024 0.165,-0.036 0.165,-0.051L0.165,-0.587L0.178,-0.569L0.082,-0.512C0.074,-0.507 0.065,-0.504 0.056,-0.504C0.041,-0.504 0.029,-0.509 0.02,-0.521C0.01,-0.532 0.005,-0.543 0.005,-0.556C0.005,-0.574 0.014,-0.588 0.031,-0.599L0.188,-0.693C0.198,-0.698 0.21,-0.701 0.225,-0.7C0.239,-0.7 0.251,-0.695 0.26,-0.686C0.269,-0.676 0.273,-0.664 0.273,-0.649L0.273,-0.051C0.273,-0.036 0.268,-0.024 0.258,-0.015C0.247,-0.005 0.234,0 0.218,0Z" style="fill:rgb(0,180,120);fill-rule:nonzero;"/>
        </g>
    </g>
    <g id="_" transform="matrix(2.33918,0,0,2.33977,1420.22,707.01)">
        <g transform="matrix(500,0,0,500,-163.5,0)">
            <path d="M0.082,0.16C0.075,0.16 0.07,0.158 0.066,0.154C0.062,0.15 0.06,0.145 0.06,0.14C0.06,0.133 0.062,0.128 0.066,0.125C0.07,0.122 0.075,0.12 0.082,0.12L0.572,0.12C0.579,0.12 0.584,0.122 0.588,0.125C0.592,0.128 0.594,0.133 0.594,0.14C0.594,0.145 0.592,0.15 0.588,0.154C0.584,0.158 0.579,0.16 0.572,0.16L0.082,0.16Z" style="fill:rgb(0,180,120);fill-opacity:0.4;fill-rule:nonzero;"/>
        </g>
    </g>
</svg>
