<svg height="90" viewBox="0 0 2000 2000" width="90" xmlns="http://www.w3.org/2000/svg"><g id="Layer_2" data-name="Layer 2"><path d="m1241.5 860.6a35.1 35.1 0 0 1 -32.4-21.6 183.2 183.2 0 0 0 -40.7-60.7 185.8 185.8 0 0 0 -132.4-54.9 35 35 0 0 1 0-70 258 258 0 0 1 237.8 158.8 35 35 0 0 1 -32.3 48.4z" fill="#1682fc"/><path d="m1369 1350.5h-696.2a327.4 327.4 0 1 1 0-654.7c10.7 0 21.4.6 32.1 1.6a410.1 410.1 0 0 1 331.1-167.9 410.9 410.9 0 0 1 392.3 289.2 269.2 269.2 0 0 1 -59.3 531.8zm-696.2-584.7a257.4 257.4 0 1 0 0 514.7h696.2c109.8 0 199.2-89.4 199.2-199.2a199.3 199.3 0 0 0 -172.4-197.4 35 35 0 0 1 -29.3-26.2 341.8 341.8 0 0 0 -119.2-184.7 340.5 340.5 0 0 0 -496.5 81 35.1 35.1 0 0 1 -35.1 15.4 256.1 256.1 0 0 0 -42.9-3.6z" fill="#2e3a58"/><path d="m1503 1201.1h-696.2a257.4 257.4 0 0 1 -191.9-428.8 257.4 257.4 0 0 0 57.9 508.2h696.2a199 199 0 0 0 160.3-81.1 207.5 207.5 0 0 1 -26.3 1.7z" fill="#e0e1e2"/></g></svg>