<svg width="660" height="395" viewBox="0 0 660 395" fill="none" xmlns="http://www.w3.org/2000/svg">
<path d="M659 241.836C659 396.39 631.121 394.008 362.907 391.652C166.793 384.585 0 430.755 0 278.112C0 123.558 260.977 0 418.664 0C576.352 0 659 87.2813 659 241.836Z" fill="white" fill-opacity="0.65"/>
<g clip-path="url(#clip0)">
<path d="M64.2398 393.696V239.291C64.2502 223.264 70.612 207.896 81.9268 196.567C93.2416 185.237 108.583 178.873 124.58 178.873H171.836" stroke="#1A1F4F" stroke-width="5.11639" stroke-linecap="round" stroke-linejoin="round"/>
<path d="M239.902 259.023C239.902 259.023 245.051 274.476 245.806 281.956" stroke="#1A1F4F" stroke-width="6.82185" stroke-linecap="round" stroke-linejoin="round"/>
<path d="M303.291 253.428C302.829 263.155 302.99 272.901 303.773 282.607" stroke="#1A1F4F" stroke-width="6.82185" stroke-linecap="round" stroke-linejoin="round"/>
<path d="M351.766 204.357C353.562 206.213 354.256 231.901 370.481 231.597" stroke="#1A1F4F" stroke-width="5.11639" stroke-linecap="round" stroke-linejoin="round"/>
<path d="M176.417 212.263C169.311 215.406 159.064 221.513 150.821 234.161C162.439 229.38 202.415 265.196 230.752 257.072C217.577 255.673 189.345 234.944 176.417 212.263Z" fill="#1A1F4F"/>
<path d="M199.505 155.118C165.12 171.518 164.647 194.568 176.334 214.61C170.2 215.579 155.355 223.955 123.938 268.404C78.7078 332.39 80.8769 392.095 168.855 393.617" stroke="#1A1F4F" stroke-width="5.11639" stroke-linecap="round" stroke-linejoin="round"/>
<path d="M336.973 297.469V297.217C440.625 307.088 437.619 261.849 426.774 216.37L399.547 126.169C395.534 117.397 391.947 121.153 390.437 118.41C386.945 112.003 385.556 109.191 385.556 109.191C372.82 120.001 347.38 115.276 347.38 115.276C347.38 115.276 347.163 117.61 346.986 124.747C346.808 131.885 338.873 130.833 339.806 140.317L351.736 204.351L318.588 197.271C316.466 185.644 311.061 168.001 298.064 156.847" stroke="#1A1F4F" stroke-width="5.11639" stroke-linecap="round" stroke-linejoin="round"/>
<path d="M341.815 393.386L341.277 356.205" stroke="#1A1F4F" stroke-width="5.11639" stroke-linecap="round" stroke-linejoin="round"/>
<path d="M334.08 200.578C328.848 198.405 321.868 197.592 317.299 196.858C318.161 201.216 318.539 205.656 318.427 210.098C317.443 232.996 308.502 241.932 306.372 250.365C333.854 240.215 335.997 213.362 334.08 200.578Z" fill="#1A1F4F"/>
<path d="M292.888 334.425C292.311 339.267 291.201 341.301 279.896 347.126C277.011 348.612 270.933 351.837 262.79 355.927C264.478 376.83 265.393 392.204 265.393 392.204L299.279 392.678C299.279 392.678 298.342 357.736 297.608 322.237C295.73 326.044 293.236 331.478 292.888 334.425Z" fill="#FA613F"/>
<path d="M296.849 253.634C297.283 234.904 290.125 216.531 283.206 204.239C282.086 221.338 278.434 241.159 274.573 247.622C256.352 234.961 242.687 227.702 231.763 221.921C224.861 210.772 219.035 200.831 216.519 193.62C216.554 192.529 216.588 191.42 216.623 190.308L215.434 190.425C218.471 200.453 225.022 214.71 238.583 233.861C241.353 237.1 243.892 240.53 246.179 244.128V244.128C249.415 249.209 252.383 263.583 254.964 281.508C270.048 279.409 281.735 278.996 283.856 282.217L296.962 284.729C296.476 259.693 296.619 263.857 296.849 253.634Z" fill="#FA613F"/>
<path d="M314.297 317.002L294.138 321.136" stroke="#1A1F4F" stroke-width="5.11639" stroke-linecap="round" stroke-linejoin="round"/>
<path d="M338.218 346.007C339.91 352.527 343.65 365.071 346.461 364.898C350.452 364.65 348.318 339.609 347.762 331.924C347.489 327.982 344.725 315.298 342.47 308.887C339.524 300.498 326.097 274.953 298.793 284.272L279.067 289.11" stroke="#1A1F4F" stroke-width="5.11639" stroke-linecap="round" stroke-linejoin="round"/>
<path d="M315.386 311.909C314.952 316.355 312.35 325.705 315.746 331.847" stroke="#1A1F4F" stroke-width="5.11639" stroke-linecap="round" stroke-linejoin="round"/>
<path d="M341.815 331.437C341.815 331.437 339.685 349.598 333.628 350.997C327.572 352.397 327.186 347.276 327.186 347.276" stroke="#1A1F4F" stroke-width="5.11639" stroke-linecap="round" stroke-linejoin="round"/>
<path d="M334.548 330.816C334.548 330.816 331.277 346.825 325.13 347.768C318.983 348.711 318.983 343.608 318.983 343.608" stroke="#1A1F4F" stroke-width="5.11639" stroke-linecap="round" stroke-linejoin="round"/>
<path d="M325.581 329.829C325.581 329.829 321.334 349.02 314.514 341.743C307.695 334.467 308.415 330.759 308.415 330.759C308.415 330.759 311.695 325.487 316.952 333.906" stroke="#1A1F4F" stroke-width="5.11639" stroke-linecap="round" stroke-linejoin="round"/>
<path d="M293.162 331.367C277.826 318.901 272.625 287.505 279.106 280.633C279.366 278.46 284.347 282.133 287.349 282.468C294.593 283.276 297.717 283.498 297.717 283.498C294.78 292.548 298.051 303.492 301.413 311.277C302.855 314.717 304.525 318.057 306.411 321.274C305.834 321.566 303.504 322.717 297.964 325.151C294.771 326.573 294.094 328.972 293.162 331.367Z" fill="#1A1F4F"/>
<path d="M171.836 284.224C178.608 281.977 196.841 278.865 202.402 291.731" stroke="#1A1F4F" stroke-width="5.11639" stroke-linecap="round" stroke-linejoin="round"/>
<path d="M171.836 298.942C171.836 298.942 277.058 271.862 283.861 282.199L299.838 317.993C299.838 317.993 293.461 329.577 292.897 334.423C292.333 339.27 291.21 341.3 279.904 347.124C268.599 352.949 209.534 386.944 167.198 393.616" stroke="#1A1F4F" stroke-width="5.11639" stroke-linecap="round" stroke-linejoin="round"/>
<path d="M217.309 169.396C217.079 176.177 216.775 185.357 216.519 193.611C219.035 200.822 224.861 210.763 231.763 221.912C242.687 227.693 256.339 234.952 274.573 247.614C278.477 241.15 282.086 221.33 283.206 204.23" stroke="#1A1F4F" stroke-width="5.11639" stroke-linecap="round" stroke-linejoin="round"/>
<path d="M211.756 137.58C208.489 137.871 196.264 139.827 198.854 152.793C200.91 163.108 210.32 162.191 215.955 160.617" stroke="#1A1F4F" stroke-width="5.11639" stroke-linecap="round" stroke-linejoin="round"/>
<path d="M297.847 113.292C300.164 130.995 299.092 149.999 297.279 164.147" stroke="#1A1F4F" stroke-width="5.11639" stroke-linecap="round" stroke-linejoin="round"/>
<path d="M297.279 164.129C296.52 170.084 295.626 175.173 294.797 178.933" stroke="#1A1F4F" stroke-width="5.11639" stroke-linecap="round" stroke-linejoin="round"/>
<path d="M221.374 140.678C224.111 143.451 231.451 159.438 233.243 166.893C233.243 166.893 251.407 160.629 277.432 160.247C277.432 160.247 291.622 160.538 297.279 162.259C297.279 162.259 296.055 188.656 284.551 202.326C273.046 215.997 248.721 212.172 237.299 203.952C225.877 195.733 224.002 191.812 221.361 183.019C218.719 174.226 211.743 141.443 211.743 141.443L221.374 140.678Z" stroke="#1A1F4F" stroke-width="5.11639" stroke-linecap="round" stroke-linejoin="round"/>
<path d="M270.269 183.07C270.269 183.07 277.362 181.658 280.247 184.483Z" fill="white"/>
<path d="M270.269 183.07C270.269 183.07 277.362 181.658 280.247 184.483" stroke="#1A1F4F" stroke-width="5.11639" stroke-linecap="round" stroke-linejoin="round"/>
<path d="M279.31 150.084L281.948 173.082L273.853 171.009" stroke="#1A1F4F" stroke-width="5.11639" stroke-linecap="round" stroke-linejoin="round"/>
<path d="M287.782 156.304C289.081 156.304 290.134 154.672 290.134 152.657C290.134 150.643 289.081 149.011 287.782 149.011C286.484 149.011 285.431 150.643 285.431 152.657C285.431 154.672 286.484 156.304 287.782 156.304Z" fill="#1A1F4F"/>
<path d="M265.141 155.905C266.44 155.905 267.493 154.272 267.493 152.258C267.493 150.244 266.44 148.611 265.141 148.611C263.843 148.611 262.79 150.244 262.79 152.258C262.79 154.272 263.843 155.905 265.141 155.905Z" fill="#1A1F4F"/>
<path d="M254.942 133.233C256.129 131.709 257.703 130.532 259.498 129.825C261.293 129.118 263.245 128.906 265.15 129.212" stroke="#1A1F4F" stroke-width="5.11639" stroke-linecap="round" stroke-linejoin="round"/>
<path d="M286.754 128.812C286.754 128.812 293.262 127.117 294.906 132.459" stroke="#1A1F4F" stroke-width="5.11639" stroke-linecap="round" stroke-linejoin="round"/>
<path d="M312.783 109.561C312.211 107.883 312.862 105.84 314.059 103.784L313.746 103.432L312.276 107.562C312.276 107.562 307.673 109.548 306.155 103.65C305.686 101.846 306.749 99.6464 308.441 97.4687L308.393 97.4122C301.994 98.8987 289.492 101.324 288.364 98.8031C286.772 95.2345 309.33 85.7632 316.202 82.7206C319.725 81.1776 331.915 77.8263 338.483 76.8701C342.84 76.3149 347.246 76.2668 351.615 76.7266C352.122 72.682 351.335 68.5803 349.367 65.0125C347.237 61.0745 342.786 55.2196 338.834 53.1201C299.665 32.3042 280.555 67.464 280.555 67.464C280.555 67.464 275.041 52.3856 257.194 51.8466C253.574 51.7489 249.972 52.3924 246.608 53.7377C243.245 55.083 240.191 57.1018 237.633 59.6705C223.018 74.349 232.761 90.9661 232.761 90.9661C232.761 90.9661 225.955 87.4889 216.775 91.9268C205.808 97.2427 200.29 109.687 203.14 121.558C206.177 134.163 211.756 146.164 211.756 146.164C247.398 151.693 256.508 116.629 251.259 112.104C259.163 117.963 273.384 121.888 297.47 119.463C302.983 118.889 309.747 116.716 316.631 113.421C315.3 113.238 313.751 112.369 312.783 109.561Z" fill="#1A1F4F"/>
<path d="M346.218 106.197L351.888 129.065L384.099 119.52" stroke="#1A1F4F" stroke-width="5.11639" stroke-linecap="round" stroke-linejoin="round"/>
<path d="M308.41 97.4297C302.012 98.9163 289.509 101.342 288.381 98.8207C286.789 95.2521 309.348 85.7808 316.219 82.7382C319.742 81.1951 331.932 77.8439 338.5 76.8876C347.068 75.6488 378.216 74.8577 382.533 102.715L387.144 119.941L356.508 129.043" stroke="#1A1F4F" stroke-width="5.11639" stroke-linecap="round" stroke-linejoin="round"/>
<path d="M354.885 101.798C351.254 104.197 337.628 110.656 330.787 110.491" stroke="#1A1F4F" stroke-width="5.11639" stroke-linecap="round" stroke-linejoin="round"/>
<path d="M319.347 87.7238C319.347 87.7238 304.649 97.7862 306.172 103.676C307.695 109.566 312.293 107.588 312.293 107.588" stroke="#1A1F4F" stroke-width="5.11639" stroke-linecap="round" stroke-linejoin="round"/>
<path d="M323.169 93.7362C323.169 93.7362 310.844 103.812 312.801 109.562C314.757 115.313 319.195 112.992 319.195 112.992" stroke="#1A1F4F" stroke-width="5.11639" stroke-linecap="round" stroke-linejoin="round"/>
<path d="M328.08 101.068C328.08 101.068 313.452 113.426 322.809 116.038C332.166 118.65 335.043 116.355 335.043 116.355C335.043 116.355 338.105 111.139 328.466 110.383" stroke="#1A1F4F" stroke-width="5.11639" stroke-linecap="round" stroke-linejoin="round"/>
<path d="M343.107 131.568C349.263 139.744 390.971 133.585 397.834 123.023C394.545 118.502 391.925 121.08 390.459 118.411C386.966 112.004 385.578 109.192 385.578 109.192C378.333 115.342 366.972 116.464 358.521 116.29C354.794 116.257 351.074 115.976 347.385 115.451C347.333 116.098 347.155 118.693 347.003 124.753C346.929 128.26 344.968 129.795 343.107 131.568Z" fill="#1A1F4F"/>
<path d="M570.719 272.29H402.046C400.971 272.29 399.927 272.653 399.084 273.321C398.24 273.99 397.647 274.924 397.4 275.972L373.952 375.431H312.809C312.809 375.431 309.421 392.965 329.182 392.965H544.521C545.596 392.966 546.639 392.603 547.483 391.934C548.326 391.266 548.919 390.332 549.167 389.284L575.361 278.171C575.526 277.469 575.531 276.739 575.375 276.035C575.219 275.331 574.906 274.671 574.46 274.106C574.013 273.54 573.445 273.083 572.797 272.769C572.149 272.454 571.439 272.291 570.719 272.29V272.29Z" fill="#1A1F4F"/>
<path d="M556.806 314.534C554.287 314.534 551.796 314.011 549.489 312.998C547.182 311.984 545.11 310.503 543.403 308.646C541.697 306.79 540.393 304.599 539.574 302.212C538.756 299.825 538.44 297.294 538.647 294.779C539.297 286.903 539.384 282.052 540.195 278.397C541.306 273.372 551.041 266.456 562.32 258.094C568.252 253.73 572.378 249.665 574.697 245.901C577.016 242.137 578.173 237.469 578.168 231.896C578.168 225.02 575.988 219.609 571.63 215.662C567.271 211.715 561.993 209.739 555.796 209.733C543.484 209.733 535.217 216.266 530.994 229.332C529.605 233.537 526.781 237.116 523.019 239.442C519.256 241.768 514.797 242.692 510.422 242.05C507.62 241.646 504.946 240.611 502.602 239.022C500.257 237.433 498.302 235.331 496.885 232.876C495.467 230.421 494.624 227.676 494.419 224.847C494.213 222.018 494.651 219.179 495.699 216.544C499.727 206.333 505.503 197.977 513.025 191.477C525.493 180.703 540.723 175.315 558.715 175.312C577.074 175.312 592.466 180.608 604.891 191.199C617.315 201.79 623.533 215.216 623.545 231.475C623.545 251.634 613.207 268.496 592.531 282.061C583.534 288.007 578.087 292.652 576.189 295.996C575.457 297.364 574.916 298.826 574.584 300.343C573.647 304.362 571.384 307.948 568.161 310.519C564.938 313.091 560.944 314.498 556.824 314.513L556.806 314.534ZM559.27 369.024H557.605C552.034 369.024 546.692 366.807 542.753 362.861C538.814 358.915 536.6 353.563 536.599 347.982V347.982C536.599 345.218 537.142 342.481 538.198 339.928C539.254 337.374 540.801 335.054 542.751 333.1C544.702 331.145 547.018 329.595 549.566 328.537C552.115 327.48 554.846 326.935 557.605 326.935H559.27C562.029 326.935 564.76 327.48 567.308 328.537C569.856 329.595 572.172 331.145 574.122 333.1C576.072 335.054 577.619 337.374 578.674 339.928C579.729 342.481 580.272 345.218 580.272 347.982V347.982C580.272 353.562 578.059 358.914 574.12 362.861C570.182 366.807 564.84 369.024 559.27 369.024V369.024Z" fill="#FA613F"/>
<path d="M128.358 136.555C127.798 136.797 127.194 136.921 126.584 136.918C125.974 136.915 125.372 136.786 124.814 136.538C124.257 136.29 123.756 135.929 123.345 135.478C122.933 135.027 122.62 134.495 122.424 133.916C121.951 132.676 121.541 131.412 121.196 130.13C120.962 128.909 122.454 126.436 124.163 123.489C124.925 122.293 125.46 120.967 125.742 119.577C125.875 118.397 125.677 117.203 125.17 116.13C124.913 115.445 124.51 114.824 123.989 114.31C123.469 113.797 122.843 113.403 122.155 113.157C120.816 112.699 119.352 112.775 118.068 113.37C115.332 114.558 114.123 116.806 114.441 120.116C114.536 121.183 114.252 122.249 113.641 123.128C113.029 124.007 112.129 124.643 111.097 124.923V124.923C110.435 125.103 109.742 125.131 109.068 125.004C108.394 124.877 107.758 124.599 107.208 124.19C106.657 123.782 106.206 123.253 105.888 122.644C105.571 122.036 105.395 121.363 105.375 120.676C105.256 118.182 105.751 115.697 106.815 113.439C108.55 109.846 111.415 107.182 115.409 105.446C119.487 103.672 123.414 103.364 127.191 104.52C128.979 105.024 130.629 105.93 132.016 107.168C133.403 108.406 134.49 109.944 135.195 111.666C137.136 116.143 136.461 120.885 133.169 125.892C131.741 128.08 130.976 129.636 130.874 130.561C130.845 130.937 130.867 131.316 130.939 131.686C131.118 132.669 130.96 133.684 130.492 134.566C130.023 135.447 129.272 136.145 128.358 136.546V136.555ZM134.137 148.417L133.768 148.577C133.156 148.844 132.497 148.987 131.829 148.998C131.162 149.009 130.499 148.888 129.878 148.642C129.257 148.396 128.691 148.03 128.211 147.565C127.731 147.1 127.348 146.544 127.083 145.93V145.93C126.545 144.693 126.52 143.292 127.013 142.036C127.506 140.78 128.477 139.771 129.712 139.232L130.081 139.071C130.693 138.805 131.352 138.662 132.019 138.651C132.687 138.64 133.35 138.761 133.971 139.007C134.592 139.252 135.158 139.618 135.638 140.084C136.117 140.549 136.5 141.105 136.766 141.718C137.303 142.956 137.329 144.357 136.836 145.613C136.343 146.869 135.372 147.877 134.137 148.417V148.417Z" fill="#FA613F"/>
<path d="M151.437 80.8999C150.606 80.8554 149.793 80.6385 149.049 80.2628C148.305 79.8871 147.648 79.3609 147.118 78.7174C146.588 78.0739 146.197 77.3271 145.969 76.5244C145.742 75.7217 145.684 74.8805 145.798 74.0539C146.158 71.4677 146.275 69.8725 146.609 68.6815C147.043 67.0472 150.392 64.9434 154.275 62.3963C156.299 61.0662 157.734 59.8014 158.578 58.6017C159.459 57.245 159.944 55.6689 159.979 54.0508C160.104 51.7819 159.483 49.9577 158.118 48.5784C156.762 47.2004 154.93 46.3974 152.999 46.3356C148.95 46.1095 146.107 48.1119 144.47 52.3426C143.935 53.703 142.938 54.8311 141.656 55.529C140.373 56.2268 138.886 56.4498 137.455 56.1589V56.1589C136.537 55.9752 135.672 55.5847 134.927 55.0169C134.181 54.4491 133.574 53.7189 133.152 52.8814C132.729 52.044 132.502 51.1213 132.488 50.183C132.474 49.2448 132.673 48.3156 133.07 47.4657C134.453 44.3553 136.577 41.6328 139.256 39.5374C143.559 36.2224 148.675 34.7243 154.604 35.043C160.655 35.3792 165.632 37.4076 169.536 41.1283C173.441 44.849 175.244 49.3883 174.946 54.7463C174.579 61.3908 170.862 66.7574 163.797 70.8461C160.726 72.6456 158.846 74.0771 158.157 75.1406C157.892 75.5818 157.688 76.057 157.55 76.5532C157.167 77.8609 156.356 79.0011 155.247 79.7898C154.138 80.5785 152.796 80.9696 151.437 80.8999V80.8999ZM151.26 98.8949H150.709C148.873 98.7916 147.153 97.9629 145.927 96.5907C144.7 95.2184 144.067 93.4146 144.167 91.5752V91.5752C144.213 90.6615 144.439 89.7659 144.832 88.9399C145.225 88.1139 145.776 87.3736 146.455 86.7615C147.133 86.1494 147.926 85.6774 148.787 85.3727C149.648 85.068 150.56 84.9365 151.472 84.9857L152.023 85.0161C152.936 85.0671 153.829 85.2982 154.652 85.696C155.475 86.0938 156.212 86.6505 156.819 87.3342C157.427 88.0179 157.894 88.8151 158.194 89.6802C158.493 90.5452 158.62 91.461 158.565 92.3749V92.3749C158.453 94.208 157.622 95.9222 156.254 97.1437C154.885 98.3652 153.09 98.9947 151.26 98.8949V98.8949Z" fill="#FA613F"/>
<path d="M1.30144 393.617H657.86" stroke="#1A1F4F" stroke-width="5.11639" stroke-linecap="round" stroke-linejoin="round"/>
</g>
<defs>
<clipPath id="clip0">
<rect width="659.161" height="360" fill="white" transform="translate(0 35)"/>
</clipPath>
</defs>
</svg>
