<svg width="78" height="27" viewBox="0 0 78 27" fill="none" xmlns="http://www.w3.org/2000/svg">
<g clip-path="url(#clip0_6927_30182)">
<path d="M47.6936 7.47101H43.6758C43.5633 7.47101 43.4504 7.5466 43.3753 7.65984L41.9368 9.59435C41.0689 10.7624 39.9052 11.3415 38.6016 11.3344L38.6006 11.3355V11.3344C37.297 11.3415 36.1371 10.7624 35.2692 9.59435L33.8269 7.65984C33.7518 7.5466 33.639 7.47101 33.5264 7.47101H29.5087C29.3208 7.47101 29.2457 7.62204 29.3208 7.73572L33.5404 13.4639C34.0226 14.1184 34.784 14.5044 35.5934 14.5044H41.6089C42.4183 14.5044 43.1797 14.1184 43.662 13.4639L47.8814 7.73572C47.9565 7.62204 47.8814 7.47101 47.6936 7.47101ZM47.8375 26.3572L43.0878 20.0064C42.6048 19.3605 41.8487 18.9808 41.0459 18.9808H38.6013H38.6009H36.1563C35.3536 18.9808 34.5975 19.3605 34.1144 20.0064L29.3648 26.3572C29.2522 26.5087 29.3272 26.6221 29.4397 26.6221H33.6833C33.7957 26.6221 33.8709 26.5841 33.9837 26.4328C33.9837 26.4328 33.987 26.4292 33.9925 26.4237L36.1033 23.5931C36.6938 22.8013 37.6198 22.3354 38.6032 22.3354C39.5865 22.3354 40.5124 22.8013 41.1029 23.5931L43.2562 26.4805C43.3492 26.592 43.4195 26.6221 43.5189 26.6221H47.7625C47.8751 26.6221 47.9501 26.5087 47.8375 26.3572ZM73.9821 26.4331C73.9821 26.5374 74.0661 26.6221 74.1697 26.6221H77.8121C77.9157 26.6221 77.9999 26.5373 77.9999 26.4328V0.188538C77.9999 0.0841656 77.9157 -0.000579834 77.8121 -0.000579834H74.17C74.0662 -0.000579834 73.9821 0.0841656 73.9821 0.188538V2.72224C73.9821 3.85666 73.0809 4.80212 71.8793 4.80212H67.2607C67.157 4.80212 67.0728 4.88686 67.0728 4.99124V8.01656C67.0728 8.12093 67.1568 8.20539 67.2605 8.20539H72.893C73.4939 8.20539 73.9821 8.58363 73.9821 9.30231V26.4331ZM65.3029 3.70534C65.4065 3.70534 65.4905 3.62074 65.4905 3.51637V0.188538C65.4905 0.0841656 65.4064 -0.000579834 65.3026 -0.000579834H51.0711C50.9582 -0.000579834 50.8833 0.0372162 50.8458 0.22648L49.1936 14.3316C49.1936 14.4453 49.2687 14.5208 49.3813 14.5208H52.836C52.9486 14.5208 53.099 14.5208 53.1739 14.3694C54.1127 12.5164 55.84 11.7981 58.0554 11.7981C61.097 11.7981 63.1998 14.1805 63.1998 17.4706C63.1998 21.101 61.097 23.3319 58.0554 23.3319C54.7881 23.3319 53.1359 20.7977 53.1365 19.1714C53.1365 19.067 53.0524 18.9831 52.9486 18.9831H49.1573C49.0523 18.9831 48.969 19.0693 48.9685 19.1752C48.9491 22.1214 51.3829 27 58.0554 27C63.7255 27 67.3305 23.3697 67.3305 17.4706C67.3305 11.9115 63.6131 8.12995 58.2434 8.12995C56.253 8.12995 54.601 9.18864 53.9623 9.6804C53.7748 9.83173 53.6244 9.6804 53.6622 9.52893L54.3755 3.93225C54.4131 3.70534 54.5257 3.70534 54.6384 3.70534H65.3029ZM27.0738 26.6221C27.1776 26.6221 27.2616 26.5373 27.2616 26.4328V15.8824C27.2616 10.0961 24.5956 7.10862 19.7891 7.10862C17.6863 7.10862 15.7338 8.01656 14.4572 9.3779C14.3068 9.52893 14.1568 9.45334 14.0814 9.3779C12.7298 7.86509 11.3403 7.10862 8.93708 7.10862C7.13465 7.10862 5.21968 8.16774 4.43104 9.15084C4.28101 9.33996 4.09313 9.33996 4.01809 9.07525L3.64268 7.71377C3.60485 7.56273 3.5298 7.48714 3.37976 7.48714H0.187533C0.0839557 7.48714 0 7.5716 0 7.67597V26.4328C0 26.5373 0.0841249 26.6221 0.187871 26.6221H3.83021C3.93396 26.6221 4.01809 26.5373 4.01809 26.4328V15.9957C4.01809 13.1974 4.95682 10.7772 7.81046 10.7772C10.8899 10.7772 11.6032 13.3863 11.6032 15.9957V26.4328C11.6032 26.5373 11.6873 26.6221 11.7911 26.6221H15.471C15.5459 26.6221 15.6587 26.5465 15.6587 26.4328V15.9957C15.6587 13.1974 16.3721 10.7772 19.4137 10.7772C22.568 10.7772 23.2438 13.424 23.2438 15.9957V26.4331C23.2438 26.5374 23.3278 26.6221 23.4315 26.6221H27.0738Z" fill="white"/>
</g>
<defs>
<clipPath id="clip0_6927_30182">
<rect width="78" height="27" fill="white"/>
</clipPath>
</defs>
</svg>
