<svg width="40" height="40" viewBox="0 0 40 40" fill="none" xmlns="http://www.w3.org/2000/svg">
  <path d="M20 0C8.96 0 0 8.96 0 20C0 31.04 8.96 40 20 40C31.04 40 40 31.04 40 20C40 8.96 31.04 0 20 0ZM10 23C8.34 23 7 21.66 7 20C7 18.34 8.34 17 10 17C11.66 17 13 18.34 13 20C13 21.66 11.66 23 10 23ZM20 23C18.34 23 17 21.66 17 20C17 18.34 18.34 17 20 17C21.66 17 23 18.34 23 20C23 21.66 21.66 23 20 23ZM30 23C28.34 23 27 21.66 27 20C27 18.34 28.34 17 30 17C31.66 17 33 18.34 33 20C33 21.66 31.66 23 30 23Z" fill="currentColor" />
</svg>
