<?xml version="1.0" encoding="UTF-8" standalone="no"?>
<!-- Created with Inkscape (http://www.inkscape.org/) -->

<svg
   version="1.1"
   id="svg2"
   width="811.14667"
   height="266.38666"
   viewBox="0 0 811.14667 266.38666"
   xmlns="http://www.w3.org/2000/svg">
  <defs
     id="defs6" />
  <g
     id="g8"
     transform="matrix(1.3333333,0,0,-1.3333333,0,266.38667)">
    <g
       id="g10"
       transform="scale(0.1)">
      <path
         d="m 3563.39,30.8906 c 26.94,-0.039 42.28,30.7891 25.98,52.2383 l -265.6,349.2691 c -53.17,69.934 -135.98,110.993 -223.84,110.993 h -308.61 c -87.57,0 -170.14,-40.789 -223.34,-110.34 L 2300.5,83.1914 c -16.39,-21.4297 -1.03,-52.3516 25.95,-52.3008 6.67,0.0078 12.61,0.0196 17.06,0.0196 h 196.7 c 26.21,0 46.8,11.2382 61.82,33.7187 l 146.02,190.6601 c 25.38,33.152 64.76,52.59 106.51,52.59 h 181.78 c 41.95,0 81.48,-19.609 106.84,-53.02 L 3287.67,64.6289 c 16.86,-22.4805 38.37,-33.7187 64.62,-33.7187 h 196.7 c 3.9,0 8.87,-0.0118 14.4,-0.0196 z m 8.86,1265.5694 c 16.37,21.43 1.14,52.34 -25.82,52.34 h -213.8 c -26.26,0 -46.85,-10.32 -61.82,-30.91 l -159.17,-209.43 c -19.16,-25.21 -49,-40.02 -80.67,-40.02 h -169.43 c -31.67,0 -61.51,14.81 -80.67,40.02 l -159.17,209.43 c -15.02,20.59 -36.53,30.91 -64.63,30.91 h -210.75 c -26.65,0 -41.97,-30.33 -26.2,-51.82 3.99,-5.44 7.32,-10.01 9.33,-12.81 l 274.07,-355.068 c 46.81,-60.653 119.09,-96.172 195.71,-96.172 h 294.05 c 76.61,0 148.9,35.519 195.71,96.172 l 274.06,355.068 c 1.94,2.71 5.22,7.08 9.2,12.29 z m 1810.25,173.17 c 8.43,-5.62 15.46,-8.43 21.07,-8.43 9.36,0 19.67,3.73 30.91,11.24 l 359.69,205.13 V 84.3008 c 0,-35.6094 17.77,-53.3906 53.39,-53.3906 h 182.65 c 35.56,0 53.38,17.7812 53.38,53.3906 V 1944.52 c 0,35.56 -17.82,53.39 -53.38,53.39 h -157.37 c -24.36,0 -46.84,-6.59 -67.43,-19.67 l -399.02,-230.42 c -24.37,-11.24 -36.54,-31.88 -36.54,-61.82 v -177.03 c 0,-20.64 4.22,-33.72 12.65,-39.34 z M 0,84.3008 C 0,48.6914 17.7813,30.9102 53.3906,30.9102 H 227.605 c 35.571,0 53.391,17.7812 53.391,53.3906 V 750.27 c 0,114.242 30.918,205.128 92.734,272.57 61.817,67.44 141.426,101.16 238.848,101.16 89.922,0 160.176,-30.48 210.75,-91.33 50.578,-60.889 75.871,-151.299 75.871,-271.158 V 84.3008 c 0,-35.6094 17.781,-53.3906 53.391,-53.3906 h 174.22 c 35.56,0 53.4,17.7812 53.4,53.3906 V 750.27 c 0,116.128 30.9,207.449 92.72,273.97 61.82,66.48 141.43,99.76 238.85,99.76 89.92,0 159.68,-30.48 209.34,-91.33 49.62,-60.889 74.47,-151.299 74.47,-271.158 V 84.3008 c 0,-35.6094 17.78,-53.3906 53.39,-53.3906 h 174.22 c 35.56,0 53.39,17.7812 53.39,53.3906 V 831.762 c 0,170.438 -44.04,304.398 -132.07,401.828 -88.07,97.38 -207.94,146.12 -359.68,146.12 -103.04,0 -195.3,-22.97 -276.78,-68.85 -81.5,-45.92 -141.91,-110.99 -181.25,-195.29 h -11.24 c -78.68,176.06 -219.183,264.14 -421.5,264.14 -95.535,0 -179.402,-21.08 -251.492,-63.23 -72.14,-42.15 -125.051,-101.64 -158.769,-178.43 h -11.243 v 157.36 c 0,35.56 -17.82,53.39 -53.386,53.39 H 53.3906 C 17.7813,1348.8 0,1330.97 0,1295.41 Z M 5195.05,691.262 c 0,-202.321 -67,-368.114 -200.92,-497.371 C 4860.18,64.6289 4686.44,0 4472.87,0 4283.64,0 4124.43,50.1016 3995.18,150.332 3881.34,238.57 3809.68,351.941 3780.12,490.34 l -1.99,11.789 c -3.66,21.66 13.04,41.402 35,41.402 h 226.55 c 18.07,0 33.7,-11.781 39.61,-28.851 23.1,-66.821 65.75,-122.719 128.04,-167.649 73.98,-53.39 162.49,-80.082 265.54,-80.082 125.49,0 228.06,40.262 307.7,120.832 79.61,80.52 119.43,184.489 119.43,311.91 0,118.02 -35.62,212.59 -106.79,283.809 -71.21,71.17 -165.79,106.78 -283.81,106.78 -143.2,0 -261.25,-44.06 -352.3,-134.069 -27.39,-27.07 -44.01,-52.563 -60.79,-83.449 -0.23,-0.43 -0.42,-0.883 -0.63,-1.321 -11.27,-23.39 -35.22,-38.043 -61.2,-38.043 H 3826 c -19.27,0 -34.26,16.813 -31.98,35.954 2.98,25.097 6.32,51.839 10.07,80.429 l 129.27,997.549 c 1.84,33.72 20.59,50.58 56.19,50.58 h 1049.8 c 23.91,0 43.3,-19.38 43.3,-43.29 v -180.38 c 0,-23.9 -19.38,-43.28 -43.29,-43.28 h -864.34 l -64.64,-528.28 c 118.03,91.76 260.37,137.69 427.13,137.69 191.07,0 348.44,-59.49 472.08,-178.44 123.63,-118.98 185.46,-275.86 185.46,-470.668"
         style="fill:#ffffff;fill-opacity:1;fill-rule:nonzero;stroke:none"
         id="path12" />
    </g>
  </g>
</svg>
