<svg width="48" height="48" viewBox="0 0 48 48" fill="none" xmlns="http://www.w3.org/2000/svg">
  <path
    d="M5.98037 18.3486C6.78816 18.3486 7.5523 18.567 8.2291 19.0038C8.9059 19.4624 9.36438 20.1612 9.60454 21.1002L9.32072 21.2967L9.42988 20.8818C9.62637 20.4014 9.95385 19.9646 10.4342 19.5934C10.8926 19.2221 11.4385 18.9164 12.0279 18.6762C12.6174 18.4578 13.185 18.3486 13.7309 18.3486C14.6041 18.3486 15.3246 18.5452 15.8923 18.9164C16.4599 19.2877 16.8747 19.7899 17.1585 20.4232C17.4205 21.0565 17.5515 21.7772 17.5515 22.5852V28.94C17.5515 29.0492 17.5078 29.1584 17.4423 29.2457C17.355 29.3331 17.2459 29.3768 17.1149 29.3768C16.9839 29.3768 16.8747 29.3331 16.8092 29.2457C16.7219 29.1584 16.6782 29.0492 16.6782 28.94V22.6725C16.6782 22.0392 16.5691 21.4496 16.3726 20.9037C16.1542 20.3796 15.8268 19.9646 15.3901 19.6371C14.9316 19.3313 14.364 19.1785 13.6435 19.1785C13.0104 19.1785 12.3991 19.3313 11.8096 19.6371C11.2201 19.9646 10.718 20.3796 10.3468 20.9037C9.95385 21.4496 9.75736 22.0392 9.75736 22.6725V28.94C9.75736 29.0492 9.7137 29.1584 9.6482 29.2457C9.56087 29.3331 9.45171 29.3768 9.32072 29.3768C9.18972 29.3768 9.08056 29.3331 9.01506 29.2457C8.92773 29.1584 8.88407 29.0492 8.88407 28.94V22.5633C8.88407 21.93 8.79674 21.3623 8.60025 20.86C8.40376 20.3577 8.07627 19.9428 7.66146 19.6371C7.24664 19.3313 6.679 19.1785 5.98037 19.1785C5.36906 19.1785 4.77959 19.3313 4.21195 19.6371C3.62247 19.9428 3.14216 20.3577 2.77101 20.86C2.39986 21.3623 2.20337 21.93 2.20337 22.5633V28.94C2.20337 29.0492 2.15971 29.1584 2.07238 29.2457C1.98505 29.3331 1.87589 29.3768 1.76673 29.3768C1.63573 29.3768 1.52657 29.3331 1.46107 29.2457C1.37374 29.1584 1.33008 29.0492 1.33008 28.94V18.9164C1.33008 18.8072 1.37374 18.698 1.46107 18.6107C1.5484 18.5233 1.65756 18.4797 1.76673 18.4797C1.89772 18.4797 2.00688 18.5233 2.09421 18.6107C2.15971 18.698 2.20337 18.8072 2.20337 18.9164V21.2967L1.5484 22.4105C1.5484 21.9082 1.6794 21.4059 1.91955 20.9255C2.15971 20.4451 2.48719 20.0083 2.92384 19.6152C3.31682 19.244 3.79713 18.9383 4.34294 18.698C4.86692 18.4578 5.41273 18.3486 5.98037 18.3486Z"
    fill="black"
    fillOpacity="0.8"
  />
  <path
    d="M19.604 18.2402C19.7568 18.2402 19.866 18.3057 19.9533 18.4368L27.8348 28.7661C27.9003 28.8316 27.9221 28.9189 27.9221 29.0281C27.9221 29.1373 27.8784 29.2465 27.813 29.3339C27.7256 29.4212 27.6165 29.4649 27.5073 29.4649C27.3763 29.4649 27.2453 29.3994 27.1361 29.2683L19.2328 18.9609C19.1673 18.8954 19.1455 18.808 19.1455 18.6988C19.1455 18.5678 19.1892 18.4586 19.2983 18.3713C19.3857 18.2839 19.4948 18.2402 19.604 18.2402ZM19.604 29.4649C19.4948 29.4649 19.4075 29.4431 19.3202 29.3557C19.2328 29.2902 19.1892 29.2028 19.1892 29.05C19.1892 28.9408 19.211 28.8534 19.2765 28.7879L23.0972 23.8307L23.6211 24.5077L19.9533 29.2902C19.866 29.3994 19.7568 29.4649 19.604 29.4649ZM27.5073 18.2402C27.6601 18.2402 27.7693 18.2839 27.8348 18.3494C27.8784 18.4149 27.9221 18.5023 27.9221 18.6115C27.9221 18.6552 27.9221 18.6988 27.9003 18.7425C27.8784 18.808 27.8348 18.8517 27.813 18.8954L23.9923 24.0054L23.5338 23.2411L27.1361 18.4368C27.2453 18.3057 27.3763 18.2402 27.5073 18.2402Z"
    fill="black"
    fillOpacity="0.8"
  />
  <path
    d="M33.4651 31.9906C32.865 31.9906 32.2419 31.8982 31.6187 31.7135C30.9725 31.5288 30.4186 31.2518 29.9801 30.8824C29.8185 30.7439 29.68 30.5592 29.5877 30.3515C29.4954 30.1437 29.4492 29.9359 29.4492 29.7282C29.4492 29.5204 29.5415 29.2895 29.7493 29.0818C29.9339 28.874 30.1878 28.7816 30.534 28.7816C30.7879 28.7816 31.0648 28.8971 31.3879 29.151C31.688 29.3588 32.0111 29.5204 32.3804 29.6589C32.7266 29.7974 33.0728 29.8667 33.442 29.8667C34.1575 29.8667 34.8268 29.7051 35.4269 29.405C36.0039 29.1048 36.4886 28.6662 36.8348 28.1122C37.181 27.5812 37.3425 26.981 37.3425 26.3346C37.3425 25.6651 37.2041 25.111 36.904 24.6262C36.604 24.1645 36.2116 23.7951 35.727 23.5412C35.2192 23.2872 34.6653 23.1487 34.0421 23.1487C33.5344 23.1487 33.0958 23.218 32.7035 23.3796C32.3111 23.5412 31.9649 23.7028 31.6649 23.8644C31.3418 24.026 31.0879 24.1183 30.834 24.1183C30.4417 24.1183 30.1416 24.026 29.9339 23.8413C29.7262 23.6797 29.5877 23.4488 29.5415 23.1949C29.4723 22.941 29.4723 22.7101 29.4954 22.5023L30.3032 16.5924C30.3493 16.3384 30.4647 16.1076 30.6955 15.9229C30.9033 15.7613 31.1571 15.6689 31.4572 15.6689H38.2196C38.5196 15.6689 38.7966 15.7613 39.0043 15.9691C39.212 16.1768 39.3043 16.4539 39.3043 16.754C39.3043 17.0541 39.212 17.308 39.0043 17.5158C38.7966 17.7236 38.5196 17.8159 38.2196 17.8159H32.0342L32.288 17.6081L31.5495 22.687L31.2033 21.9944C31.3418 21.8328 31.5726 21.6943 31.9188 21.5327C32.2419 21.3942 32.6112 21.2788 33.0497 21.1633C33.4651 21.071 33.8806 21.0248 34.3191 21.0248C35.3346 21.0248 36.2578 21.2557 37.0656 21.6943C37.8734 22.156 38.4965 22.7794 38.9581 23.5874C39.4197 24.3954 39.6505 25.2957 39.6505 26.3115C39.6505 27.1195 39.489 27.8582 39.1659 28.5508C38.8427 29.2434 38.4042 29.8436 37.8272 30.3515C37.2502 30.8824 36.604 31.2749 35.8654 31.5519C35.1038 31.852 34.3191 31.9906 33.4651 31.9906Z"
    fill="#00B478"
  />
  <path
    d="M45.1201 31.8295C44.7739 31.8295 44.4739 31.714 44.2431 31.4832C44.0123 31.2754 43.8969 30.9984 43.8969 30.6521V18.2781L44.1969 18.6937L41.9813 20.0096C41.7966 20.125 41.5889 20.1943 41.3812 20.1943C41.035 20.1943 40.758 20.0788 40.5503 19.8018C40.3195 19.5479 40.2041 19.2939 40.2041 18.9938C40.2041 18.5783 40.4118 18.2551 40.8042 18.0011L44.4277 15.8311C44.6585 15.7156 44.9355 15.6464 45.2817 15.6695C45.6048 15.6695 45.8818 15.7849 46.0895 15.9927C46.2972 16.2235 46.3895 16.5005 46.3895 16.8468V30.6521C46.3895 30.9984 46.2741 31.2754 46.0433 31.4832C45.7894 31.714 45.4894 31.8295 45.1201 31.8295Z"
    fill="#00B478"
  />
  <path
    d="M30.2321 34.5116C30.0137 34.5116 29.8578 34.4492 29.733 34.3244C29.6083 34.1996 29.5459 34.0436 29.5459 33.8876C29.5459 33.6692 29.6083 33.5132 29.733 33.4197C29.8578 33.3261 30.0137 33.2637 30.2321 33.2637H45.5147C45.733 33.2637 45.889 33.3261 46.0137 33.4197C46.1385 33.5132 46.2009 33.6692 46.2009 33.8876C46.2009 34.0436 46.1385 34.1996 46.0137 34.3244C45.889 34.4492 45.733 34.5116 45.5147 34.5116H30.2321Z"
    fill="#00B478"
    fillOpacity="0.4"
  />
</svg>
