<svg width="96" height="30" viewBox="0 0 30 30" fill="none" xmlns="http://www.w3.org/2000/svg">
  <rect x="0.5" y="0.5" width="29" height="29" rx="7.5" fill="#FCFCFD"/>
  <rect x="0.5" y="0.5" width="29" height="29" rx="7.5" stroke="url(#paint0_linear_494_4278)"/>
  <rect x="0.5" y="0.5" width="29" height="29" rx="7.5" stroke="url(#paint1_linear_494_4278)" stroke-opacity="0.5"/>
  <path d="M12.25 11C11.8355 11 11.5 10.7204 11.5 10.375V7.25H7.75C7.33555 7.25 7 6.97038 7 6.625C7 6.27962 7.33555 6 7.75 6H12.25C12.6645 6 13 6.27962 13 6.625V10.375C13 10.7204 12.6645 11 12.25 11Z" fill="url(#paint2_linear_494_4278)"/>
  <path d="M12.25 11C11.8355 11 11.5 10.7204 11.5 10.375V7.25H7.75C7.33555 7.25 7 6.97038 7 6.625C7 6.27962 7.33555 6 7.75 6H12.25C12.6645 6 13 6.27962 13 6.625V10.375C13 10.7204 12.6645 11 12.25 11Z" fill="url(#paint3_linear_494_4278)" fill-opacity="0.5"/>
  <path d="M16.5 11C16.2237 11 16 10.7034 16 10.337V3.66298C16 3.29662 16.2237 3 16.5 3C16.7763 3 17 3.29662 17 3.66298V10.337C17 10.7034 16.7763 11 16.5 11Z" fill="url(#paint4_linear_494_4278)"/>
  <path d="M16.5 11C16.2237 11 16 10.7034 16 10.337V3.66298C16 3.29662 16.2237 3 16.5 3C16.7763 3 17 3.29662 17 3.66298V10.337C17 10.7034 16.7763 11 16.5 11Z" fill="url(#paint5_linear_494_4278)" fill-opacity="0.5"/>
  <path d="M20.375 24H16.625C16.2796 24 16 23.7204 16 23.375V19.625C16 19.2796 16.2796 19 16.625 19C16.9704 19 17.25 19.2796 17.25 19.625V22.75H20.375C20.7204 22.75 21 23.0296 21 23.375C21 23.7204 20.7204 24 20.375 24Z" fill="url(#paint6_linear_494_4278)"/>
  <path d="M20.375 24H16.625C16.2796 24 16 23.7204 16 23.375V19.625C16 19.2796 16.2796 19 16.625 19C16.9704 19 17.25 19.2796 17.25 19.625V22.75H20.375C20.7204 22.75 21 23.0296 21 23.375C21 23.7204 20.7204 24 20.375 24Z" fill="url(#paint7_linear_494_4278)" fill-opacity="0.5"/>
  <path d="M12.1875 27C11.799 27 11.4844 26.6854 11.4844 26.2969V19.2188C11.4844 18.8302 11.799 18.5156 12.1875 18.5156C12.576 18.5156 12.8906 18.8302 12.8906 19.2188V26.2969C12.8906 26.6854 12.576 27 12.1875 27Z" fill="url(#paint8_linear_494_4278)"/>
  <path d="M12.1875 27C11.799 27 11.4844 26.6854 11.4844 26.2969V19.2188C11.4844 18.8302 11.799 18.5156 12.1875 18.5156C12.576 18.5156 12.8906 18.8302 12.8906 19.2188V26.2969C12.8906 26.6854 12.576 27 12.1875 27Z" fill="url(#paint9_linear_494_4278)" fill-opacity="0.5"/>
  <path d="M6.5625 22.0312C6.17395 22.0312 5.85938 21.7167 5.85938 21.3281V17.1094C5.85938 16.7208 6.17395 16.4062 6.5625 16.4062H10.7812C11.1698 16.4062 11.4844 16.7208 11.4844 17.1094C11.4844 17.4979 11.1698 17.8125 10.7812 17.8125H7.26562V21.3281C7.26562 21.7167 6.95105 22.0312 6.5625 22.0312Z" fill="url(#paint10_linear_494_4278)"/>
  <path d="M6.5625 22.0312C6.17395 22.0312 5.85938 21.7167 5.85938 21.3281V17.1094C5.85938 16.7208 6.17395 16.4062 6.5625 16.4062H10.7812C11.1698 16.4062 11.4844 16.7208 11.4844 17.1094C11.4844 17.4979 11.1698 17.8125 10.7812 17.8125H7.26562V21.3281C7.26562 21.7167 6.95105 22.0312 6.5625 22.0312Z" fill="url(#paint11_linear_494_4278)" fill-opacity="0.5"/>
  <path d="M10.7812 13.5938H3.70312C3.31458 13.5938 3 13.2792 3 12.8906C3 12.5021 3.31458 12.1875 3.70312 12.1875H10.7812C11.1698 12.1875 11.4844 12.5021 11.4844 12.8906C11.4844 13.2792 11.1698 13.5938 10.7812 13.5938Z" fill="url(#paint12_linear_494_4278)"/>
  <path d="M10.7812 13.5938H3.70312C3.31458 13.5938 3 13.2792 3 12.8906C3 12.5021 3.31458 12.1875 3.70312 12.1875H10.7812C11.1698 12.1875 11.4844 12.5021 11.4844 12.8906C11.4844 13.2792 11.1698 13.5938 10.7812 13.5938Z" fill="url(#paint13_linear_494_4278)" fill-opacity="0.5"/>
  <path d="M23.375 14H19.625C19.2796 14 19 13.6645 19 13.25C19 12.8355 19.2796 12.5 19.625 12.5H22.75V8.75C22.75 8.33555 23.0296 8 23.375 8C23.7204 8 24 8.33555 24 8.75V13.25C24 13.6645 23.7204 14 23.375 14Z" fill="url(#paint14_linear_494_4278)"/>
  <path d="M23.375 14H19.625C19.2796 14 19 13.6645 19 13.25C19 12.8355 19.2796 12.5 19.625 12.5H22.75V8.75C22.75 8.33555 23.0296 8 23.375 8C23.7204 8 24 8.33555 24 8.75V13.25C24 13.6645 23.7204 14 23.375 14Z" fill="url(#paint15_linear_494_4278)" fill-opacity="0.5"/>
  <path d="M26.337 18H19.663C19.2966 18 19 17.5526 19 17C19 16.4474 19.2966 16 19.663 16H26.337C26.7034 16 27 16.4474 27 17C27 17.5526 26.7034 18 26.337 18Z" fill="url(#paint16_linear_494_4278)"/>
  <path d="M26.337 18H19.663C19.2966 18 19 17.5526 19 17C19 16.4474 19.2966 16 19.663 16H26.337C26.7034 16 27 16.4474 27 17C27 17.5526 26.7034 18 26.337 18Z" fill="url(#paint17_linear_494_4278)" fill-opacity="0.5"/>
  <path d="M19.2857 10H10.7143C10.3142 10 10 10.3142 10 10.7143V19.2857C10 19.6856 10.3142 20 10.7143 20H19.2857C19.6858 20 20 19.6856 20 19.2857V10.7143C20 10.3142 19.6858 10 19.2857 10Z" fill="url(#paint18_linear_494_4278)"/>
  <path d="M19.2857 10H10.7143C10.3142 10 10 10.3142 10 10.7143V19.2857C10 19.6856 10.3142 20 10.7143 20H19.2857C19.6858 20 20 19.6856 20 19.2857V10.7143C20 10.3142 19.6858 10 19.2857 10Z" fill="url(#paint19_linear_494_4278)" fill-opacity="0.5"/>
  <path d="M20 10.7143V19.2857C20 19.6856 19.6858 20 19.2857 20H15V10H19.2857C19.6858 10 20 10.3142 20 10.7143Z" fill="url(#paint20_linear_494_4278)"/>
  <path d="M20 10.7143V19.2857C20 19.6856 19.6858 20 19.2857 20H15V10H19.2857C19.6858 10 20 10.3142 20 10.7143Z" fill="url(#paint21_linear_494_4278)" fill-opacity="0.5"/>
  <path d="M8 9C7.4474 9 7 8.62717 7 8.16667V4.83333C7 4.37283 7.4474 4 8 4C8.5526 4 9 4.37283 9 4.83333V8.16667C9 8.62717 8.5526 9 8 9Z" fill="url(#paint22_linear_494_4278)"/>
  <path d="M8 9C7.4474 9 7 8.62717 7 8.16667V4.83333C7 4.37283 7.4474 4 8 4C8.5526 4 9 4.37283 9 4.83333V8.16667C9 8.62717 8.5526 9 8 9Z" fill="url(#paint23_linear_494_4278)" fill-opacity="0.5"/>
  <path d="M20.5 26C20.2237 26 20 25.6272 20 25.1667V21.8333C20 21.3728 20.2237 21 20.5 21C20.7763 21 21 21.3728 21 21.8333V25.1667C21 25.6272 20.7763 26 20.5 26Z" fill="url(#paint24_linear_494_4278)"/>
  <path d="M20.5 26C20.2237 26 20 25.6272 20 25.1667V21.8333C20 21.3728 20.2237 21 20.5 21C20.7763 21 21 21.3728 21 21.8333V25.1667C21 25.6272 20.7763 26 20.5 26Z" fill="url(#paint25_linear_494_4278)" fill-opacity="0.5"/>
  <path d="M13.3333 27H10.6667C10.2983 27 10 26.7763 10 26.5C10 26.2237 10.2983 26 10.6667 26H13.3333C13.7017 26 14 26.2237 14 26.5C14 26.7763 13.7017 27 13.3333 27Z" fill="url(#paint26_linear_494_4278)"/>
  <path d="M13.3333 27H10.6667C10.2983 27 10 26.7763 10 26.5C10 26.2237 10.2983 26 10.6667 26H13.3333C13.7017 26 14 26.2237 14 26.5C14 26.7763 13.7017 27 13.3333 27Z" fill="url(#paint27_linear_494_4278)" fill-opacity="0.5"/>
  <path d="M8.16667 22H4.83333C4.37283 22 4 21.7763 4 21.5C4 21.2237 4.37283 21 4.83333 21H8.16667C8.62717 21 9 21.2237 9 21.5C9 21.7763 8.62717 22 8.16667 22Z" fill="url(#paint28_linear_494_4278)"/>
  <path d="M8.16667 22H4.83333C4.37283 22 4 21.7763 4 21.5C4 21.2237 4.37283 21 4.83333 21H8.16667C8.62717 21 9 21.2237 9 21.5C9 21.7763 8.62717 22 8.16667 22Z" fill="url(#paint29_linear_494_4278)" fill-opacity="0.5"/>
  <path d="M3.5 15C3.2237 15 3 14.7017 3 14.3333V11.6667C3 11.2983 3.2237 11 3.5 11C3.7763 11 4 11.2983 4 11.6667V14.3333C4 14.7017 3.7763 15 3.5 15Z" fill="url(#paint30_linear_494_4278)"/>
  <path d="M3.5 15C3.2237 15 3 14.7017 3 14.3333V11.6667C3 11.2983 3.2237 11 3.5 11C3.7763 11 4 11.2983 4 11.6667V14.3333C4 14.7017 3.7763 15 3.5 15Z" fill="url(#paint31_linear_494_4278)" fill-opacity="0.5"/>
  <path d="M25.1667 9H21.8333C21.3728 9 21 8.7763 21 8.5C21 8.2237 21.3728 8 21.8333 8H25.1667C25.6272 8 26 8.2237 26 8.5C26 8.7763 25.6272 9 25.1667 9Z" fill="url(#paint32_linear_494_4278)"/>
  <path d="M25.1667 9H21.8333C21.3728 9 21 8.7763 21 8.5C21 8.2237 21.3728 8 21.8333 8H25.1667C25.6272 8 26 8.2237 26 8.5C26 8.7763 25.6272 9 25.1667 9Z" fill="url(#paint33_linear_494_4278)" fill-opacity="0.5"/>
  <path d="M26.5 19C26.2237 19 26 18.7017 26 18.3333V15.6667C26 15.2983 26.2237 15 26.5 15C26.7763 15 27 15.2983 27 15.6667V18.3333C27 18.7017 26.7763 19 26.5 19Z" fill="url(#paint34_linear_494_4278)"/>
  <path d="M26.5 19C26.2237 19 26 18.7017 26 18.3333V15.6667C26 15.2983 26.2237 15 26.5 15C26.7763 15 27 15.2983 27 15.6667V18.3333C27 18.7017 26.7763 19 26.5 19Z" fill="url(#paint35_linear_494_4278)" fill-opacity="0.5"/>
  <path d="M19 3.5C19 3.77995 18.6335 4 18.1667 4H14.8333C14.3665 4 14 3.77995 14 3.5C14 3.21992 14.3665 3 14.8333 3H18.1667C18.6335 3 19 3.21992 19 3.5Z" fill="url(#paint36_linear_494_4278)"/>
  <path d="M19 3.5C19 3.77995 18.6335 4 18.1667 4H14.8333C14.3665 4 14 3.77995 14 3.5C14 3.21992 14.3665 3 14.8333 3H18.1667C18.6335 3 19 3.21992 19 3.5Z" fill="url(#paint37_linear_494_4278)" fill-opacity="0.5"/>
  <path d="M18.2 4H15V3H18.2C18.6481 3 19 3.21992 19 3.5C19 3.77995 18.6481 4 18.2 4Z" fill="url(#paint38_linear_494_4278)"/>
  <path d="M18.2 4H15V3H18.2C18.6481 3 19 3.21992 19 3.5C19 3.77995 18.6481 4 18.2 4Z" fill="url(#paint39_linear_494_4278)" fill-opacity="0.5"/>
  <defs>
    <linearGradient id="paint0_linear_494_4278" x1="-13.1476" y1="17.0225" x2="47.723" y2="23.7975" gradientUnits="userSpaceOnUse">
      <stop offset="0.035305" stop-color="#00ACEE"/>
      <stop offset="0.875652" stop-color="#00B478"/>
      <stop offset="0.941545" stop-color="#00ACEE"/>
    </linearGradient>
    <linearGradient id="paint1_linear_494_4278" x1="14.8605" y1="2.96875" x2="14.8605" y2="34.375" gradientUnits="userSpaceOnUse">
      <stop stop-color="white"/>
      <stop offset="1" stop-color="white" stop-opacity="0"/>
    </linearGradient>
    <linearGradient id="paint2_linear_494_4278" x1="4.37048" y1="8.83708" x2="16.4794" y2="10.4544" gradientUnits="userSpaceOnUse">
      <stop offset="0.035305" stop-color="#00ACEE"/>
      <stop offset="0.875652" stop-color="#00B478"/>
      <stop offset="0.941545" stop-color="#00ACEE"/>
    </linearGradient>
    <linearGradient id="paint3_linear_494_4278" x1="9.97209" y1="6.49479" x2="9.97209" y2="11.7292" gradientUnits="userSpaceOnUse">
      <stop stop-color="white"/>
      <stop offset="1" stop-color="white" stop-opacity="0"/>
    </linearGradient>
    <linearGradient id="paint4_linear_494_4278" x1="15.5617" y1="7.53933" x2="17.6155" y2="7.5679" gradientUnits="userSpaceOnUse">
      <stop offset="0.035305" stop-color="#00ACEE"/>
      <stop offset="0.875652" stop-color="#00B478"/>
      <stop offset="0.941545" stop-color="#00ACEE"/>
    </linearGradient>
    <linearGradient id="paint5_linear_494_4278" x1="16.4953" y1="3.79167" x2="16.4954" y2="12.1667" gradientUnits="userSpaceOnUse">
      <stop stop-color="white"/>
      <stop offset="1" stop-color="white" stop-opacity="0"/>
    </linearGradient>
    <linearGradient id="paint6_linear_494_4278" x1="13.8087" y1="21.8371" x2="23.9538" y2="22.9662" gradientUnits="userSpaceOnUse">
      <stop offset="0.035305" stop-color="#00ACEE"/>
      <stop offset="0.875652" stop-color="#00B478"/>
      <stop offset="0.941545" stop-color="#00ACEE"/>
    </linearGradient>
    <linearGradient id="paint7_linear_494_4278" x1="18.4767" y1="19.4948" x2="18.4767" y2="24.7292" gradientUnits="userSpaceOnUse">
      <stop stop-color="white"/>
      <stop offset="1" stop-color="white" stop-opacity="0"/>
    </linearGradient>
    <linearGradient id="paint8_linear_494_4278" x1="10.8681" y1="23.3298" x2="13.7558" y2="23.3831" gradientUnits="userSpaceOnUse">
      <stop offset="0.035305" stop-color="#00ACEE"/>
      <stop offset="0.875652" stop-color="#00B478"/>
      <stop offset="0.941545" stop-color="#00ACEE"/>
    </linearGradient>
    <linearGradient id="paint9_linear_494_4278" x1="12.181" y1="19.3552" x2="12.181" y2="28.2373" gradientUnits="userSpaceOnUse">
      <stop stop-color="white"/>
      <stop offset="1" stop-color="white" stop-opacity="0"/>
    </linearGradient>
    <linearGradient id="paint10_linear_494_4278" x1="3.3942" y1="19.598" x2="14.8074" y2="20.8683" gradientUnits="userSpaceOnUse">
      <stop offset="0.035305" stop-color="#00ACEE"/>
      <stop offset="0.875652" stop-color="#00B478"/>
      <stop offset="0.941545" stop-color="#00ACEE"/>
    </linearGradient>
    <linearGradient id="paint11_linear_494_4278" x1="8.64571" y1="16.9629" x2="8.64571" y2="22.8516" gradientUnits="userSpaceOnUse">
      <stop stop-color="white"/>
      <stop offset="1" stop-color="white" stop-opacity="0"/>
    </linearGradient>
    <linearGradient id="paint12_linear_494_4278" x1="-0.718306" y1="12.9854" x2="11.2934" y2="21.0515" gradientUnits="userSpaceOnUse">
      <stop offset="0.035305" stop-color="#00ACEE"/>
      <stop offset="0.875652" stop-color="#00B478"/>
      <stop offset="0.941545" stop-color="#00ACEE"/>
    </linearGradient>
    <linearGradient id="paint13_linear_494_4278" x1="7.20272" y1="12.3267" x2="7.20272" y2="13.7988" gradientUnits="userSpaceOnUse">
      <stop stop-color="white"/>
      <stop offset="1" stop-color="white" stop-opacity="0"/>
    </linearGradient>
    <linearGradient id="paint14_linear_494_4278" x1="16.8087" y1="11.4045" x2="26.9919" y2="12.349" gradientUnits="userSpaceOnUse">
      <stop offset="0.035305" stop-color="#00ACEE"/>
      <stop offset="0.875652" stop-color="#00B478"/>
      <stop offset="0.941545" stop-color="#00ACEE"/>
    </linearGradient>
    <linearGradient id="paint15_linear_494_4278" x1="21.4767" y1="8.59375" x2="21.4767" y2="14.875" gradientUnits="userSpaceOnUse">
      <stop stop-color="white"/>
      <stop offset="1" stop-color="white" stop-opacity="0"/>
    </linearGradient>
    <linearGradient id="paint16_linear_494_4278" x1="15.494" y1="17.1348" x2="29.2088" y2="23.2408" gradientUnits="userSpaceOnUse">
      <stop offset="0.035305" stop-color="#00ACEE"/>
      <stop offset="0.875652" stop-color="#00B478"/>
      <stop offset="0.941545" stop-color="#00ACEE"/>
    </linearGradient>
    <linearGradient id="paint17_linear_494_4278" x1="22.9628" y1="16.1979" x2="22.9628" y2="18.2917" gradientUnits="userSpaceOnUse">
      <stop stop-color="white"/>
      <stop offset="1" stop-color="white" stop-opacity="0"/>
    </linearGradient>
    <linearGradient id="paint18_linear_494_4278" x1="5.61747" y1="15.6742" x2="25.9077" y2="17.9325" gradientUnits="userSpaceOnUse">
      <stop offset="0.035305" stop-color="#00ACEE"/>
      <stop offset="0.875652" stop-color="#00B478"/>
      <stop offset="0.941545" stop-color="#00ACEE"/>
    </linearGradient>
    <linearGradient id="paint19_linear_494_4278" x1="14.9535" y1="10.9896" x2="14.9535" y2="21.4583" gradientUnits="userSpaceOnUse">
      <stop stop-color="white"/>
      <stop offset="1" stop-color="white" stop-opacity="0"/>
    </linearGradient>
    <linearGradient id="paint20_linear_494_4278" x1="12.8087" y1="15.6742" x2="23.0478" y2="16.244" gradientUnits="userSpaceOnUse">
      <stop offset="0.035305" stop-color="#00ACEE"/>
      <stop offset="0.875652" stop-color="#00B478"/>
      <stop offset="0.941545" stop-color="#00ACEE"/>
    </linearGradient>
    <linearGradient id="paint21_linear_494_4278" x1="17.4767" y1="10.9896" x2="17.4767" y2="21.4583" gradientUnits="userSpaceOnUse">
      <stop stop-color="white"/>
      <stop offset="1" stop-color="white" stop-opacity="0"/>
    </linearGradient>
    <linearGradient id="paint22_linear_494_4278" x1="6.12349" y1="6.83708" x2="10.2237" y2="7.01962" gradientUnits="userSpaceOnUse">
      <stop offset="0.035305" stop-color="#00ACEE"/>
      <stop offset="0.875652" stop-color="#00B478"/>
      <stop offset="0.941545" stop-color="#00ACEE"/>
    </linearGradient>
    <linearGradient id="paint23_linear_494_4278" x1="7.9907" y1="4.49479" x2="7.9907" y2="9.72917" gradientUnits="userSpaceOnUse">
      <stop stop-color="white"/>
      <stop offset="1" stop-color="white" stop-opacity="0"/>
    </linearGradient>
    <linearGradient id="paint24_linear_494_4278" x1="19.5617" y1="23.8371" x2="21.6149" y2="23.8828" gradientUnits="userSpaceOnUse">
      <stop offset="0.035305" stop-color="#00ACEE"/>
      <stop offset="0.875652" stop-color="#00B478"/>
      <stop offset="0.941545" stop-color="#00ACEE"/>
    </linearGradient>
    <linearGradient id="paint25_linear_494_4278" x1="20.4953" y1="21.4948" x2="20.4954" y2="26.7292" gradientUnits="userSpaceOnUse">
      <stop stop-color="white"/>
      <stop offset="1" stop-color="white" stop-opacity="0"/>
    </linearGradient>
    <linearGradient id="paint26_linear_494_4278" x1="8.24699" y1="26.5674" x2="15.1044" y2="29.6204" gradientUnits="userSpaceOnUse">
      <stop offset="0.035305" stop-color="#00ACEE"/>
      <stop offset="0.875652" stop-color="#00B478"/>
      <stop offset="0.941545" stop-color="#00ACEE"/>
    </linearGradient>
    <linearGradient id="paint27_linear_494_4278" x1="11.9814" y1="26.099" x2="11.9814" y2="27.1458" gradientUnits="userSpaceOnUse">
      <stop stop-color="white"/>
      <stop offset="1" stop-color="white" stop-opacity="0"/>
    </linearGradient>
    <linearGradient id="paint28_linear_494_4278" x1="1.80873" y1="21.5674" x2="9.6508" y2="25.9316" gradientUnits="userSpaceOnUse">
      <stop offset="0.035305" stop-color="#00ACEE"/>
      <stop offset="0.875652" stop-color="#00B478"/>
      <stop offset="0.941545" stop-color="#00ACEE"/>
    </linearGradient>
    <linearGradient id="paint29_linear_494_4278" x1="6.47674" y1="21.099" x2="6.47674" y2="22.1458" gradientUnits="userSpaceOnUse">
      <stop stop-color="white"/>
      <stop offset="1" stop-color="white" stop-opacity="0"/>
    </linearGradient>
    <linearGradient id="paint30_linear_494_4278" x1="2.56175" y1="13.2697" x2="4.61431" y2="13.3268" gradientUnits="userSpaceOnUse">
      <stop offset="0.035305" stop-color="#00ACEE"/>
      <stop offset="0.875652" stop-color="#00B478"/>
      <stop offset="0.941545" stop-color="#00ACEE"/>
    </linearGradient>
    <linearGradient id="paint31_linear_494_4278" x1="3.49535" y1="11.3958" x2="3.49535" y2="15.5833" gradientUnits="userSpaceOnUse">
      <stop stop-color="white"/>
      <stop offset="1" stop-color="white" stop-opacity="0"/>
    </linearGradient>
    <linearGradient id="paint32_linear_494_4278" x1="18.8087" y1="8.56742" x2="26.6508" y2="12.9316" gradientUnits="userSpaceOnUse">
      <stop offset="0.035305" stop-color="#00ACEE"/>
      <stop offset="0.875652" stop-color="#00B478"/>
      <stop offset="0.941545" stop-color="#00ACEE"/>
    </linearGradient>
    <linearGradient id="paint33_linear_494_4278" x1="23.4767" y1="8.09896" x2="23.4767" y2="9.14583" gradientUnits="userSpaceOnUse">
      <stop stop-color="white"/>
      <stop offset="1" stop-color="white" stop-opacity="0"/>
    </linearGradient>
    <linearGradient id="paint34_linear_494_4278" x1="25.5617" y1="17.2697" x2="27.6143" y2="17.3268" gradientUnits="userSpaceOnUse">
      <stop offset="0.035305" stop-color="#00ACEE"/>
      <stop offset="0.875652" stop-color="#00B478"/>
      <stop offset="0.941545" stop-color="#00ACEE"/>
    </linearGradient>
    <linearGradient id="paint35_linear_494_4278" x1="26.4953" y1="15.3958" x2="26.4953" y2="19.5833" gradientUnits="userSpaceOnUse">
      <stop stop-color="white"/>
      <stop offset="1" stop-color="white" stop-opacity="0"/>
    </linearGradient>
    <linearGradient id="paint36_linear_494_4278" x1="11.8087" y1="3.56742" x2="19.6508" y2="7.9316" gradientUnits="userSpaceOnUse">
      <stop offset="0.035305" stop-color="#00ACEE"/>
      <stop offset="0.875652" stop-color="#00B478"/>
      <stop offset="0.941545" stop-color="#00ACEE"/>
    </linearGradient>
    <linearGradient id="paint37_linear_494_4278" x1="16.4767" y1="3.09896" x2="16.4767" y2="4.14583" gradientUnits="userSpaceOnUse">
      <stop stop-color="white"/>
      <stop offset="1" stop-color="white" stop-opacity="0"/>
    </linearGradient>
    <linearGradient id="paint38_linear_494_4278" x1="13.247" y1="3.56742" x2="20.1044" y2="6.62039" gradientUnits="userSpaceOnUse">
      <stop offset="0.035305" stop-color="#00ACEE"/>
      <stop offset="0.875652" stop-color="#00B478"/>
      <stop offset="0.941545" stop-color="#00ACEE"/>
    </linearGradient>
    <linearGradient id="paint39_linear_494_4278" x1="16.9814" y1="3.09896" x2="16.9814" y2="4.14583" gradientUnits="userSpaceOnUse">
      <stop stop-color="white"/>
      <stop offset="1" stop-color="white" stop-opacity="0"/>
    </linearGradient>
  </defs>
</svg>
