<svg width="96" height="48" viewBox="0 0 96 48" fill="none" xmlns="http://www.w3.org/2000/svg">
<path d="M10.1063 33C9.05266 32.9856 8.19349 32.8846 7.52886 32.6972C6.88043 32.5098 6.36169 32.2502 5.97264 31.9186C5.59979 31.5725 5.34042 31.1616 5.19453 30.6858C5.06484 30.1955 5 29.6476 5 29.042V16.5191L8.62308 16V28.3931C8.62308 28.6815 8.64739 28.9411 8.69602 29.1718C8.74466 29.4025 8.83381 29.5971 8.9635 29.7557C9.1094 29.9143 9.31203 30.0441 9.5714 30.145C9.83077 30.246 10.1793 30.3109 10.617 30.3397L10.1063 33Z" fill="url(#paint0_linear)"/>
<path d="M16.56 32.7837H12.9369V21.4071H16.56V32.7837ZM16.9004 18.1196C16.9004 18.7108 16.6815 19.1794 16.2438 19.5254C15.8224 19.8571 15.3198 20.0229 14.7363 20.0229C14.1527 20.0229 13.642 19.8571 13.2044 19.5254C12.7829 19.1794 12.5721 18.7108 12.5721 18.1196C12.5721 17.5284 12.7829 17.067 13.2044 16.7354C13.642 16.3893 14.1527 16.2163 14.7363 16.2163C15.3198 16.2163 15.8224 16.3893 16.2438 16.7354C16.6815 17.067 16.9004 17.5284 16.9004 18.1196Z" fill="url(#paint1_linear)"/>
<path d="M20.2089 21.7964C20.8249 21.6378 21.6192 21.4936 22.5918 21.3639C23.5645 21.2197 24.5857 21.1476 25.6556 21.1476C26.7418 21.1476 27.6414 21.2774 28.3547 21.5369C29.0842 21.782 29.6597 22.1353 30.0811 22.5967C30.5026 23.0581 30.8025 23.606 30.9808 24.2405C31.1592 24.8749 31.2483 25.5814 31.2483 26.3601V32.7837H27.6252V26.7494C27.6252 25.7112 27.4712 24.9758 27.1632 24.5433C26.8552 24.1107 26.2797 23.8944 25.4368 23.8944C25.1774 23.8944 24.9018 23.9088 24.6101 23.9377C24.3183 23.9521 24.0589 23.9737 23.8319 24.0025V32.7837H20.2089V21.7964Z" fill="url(#paint2_linear)"/>
<path d="M38.394 25.5165C38.7506 25.1705 39.1153 24.81 39.4882 24.4351C39.8772 24.0602 40.2501 23.6925 40.6067 23.3321C40.9634 22.9572 41.2957 22.6039 41.6037 22.2723C41.9279 21.9406 42.2035 21.6522 42.4304 21.4071H46.7343C45.8752 22.2867 45.0322 23.1302 44.2055 23.9377C43.3949 24.7307 42.5034 25.5526 41.5307 26.4033C42.017 26.7926 42.5196 27.2612 43.0383 27.8092C43.5571 28.3427 44.0596 28.8978 44.5459 29.4746C45.0322 30.0513 45.478 30.6281 45.8833 31.2048C46.2885 31.7816 46.629 32.3079 46.9045 32.7837H42.7465C42.4872 32.4088 42.1873 31.9979 41.8468 31.5509C41.5226 31.0895 41.1741 30.6353 40.8012 30.1883C40.4284 29.7269 40.0312 29.2871 39.6098 28.869C39.2045 28.4508 38.7992 28.0975 38.394 27.8092V32.7837H34.7709V16.5191L38.394 16V25.5165Z" fill="url(#paint3_linear)"/>
<path d="M54.2018 33C53.1481 32.9856 52.2889 32.8846 51.6243 32.6972C50.9759 32.5098 50.4571 32.2502 50.0681 31.9186C49.6952 31.5725 49.4359 31.1616 49.29 30.6858C49.1603 30.1955 49.0955 29.6476 49.0955 29.042V16.5191L52.7185 16V28.3931C52.7185 28.6815 52.7428 28.9411 52.7915 29.1718C52.8401 29.4025 52.9293 29.5971 53.059 29.7557C53.2048 29.9143 53.4075 30.0441 53.6669 30.145C53.9262 30.246 54.2748 30.3109 54.7124 30.3397L54.2018 33Z" fill="url(#paint4_linear)"/>
<path d="M60.6554 32.7837H57.0323V21.4071H60.6554V32.7837ZM60.9958 18.1196C60.9958 18.7108 60.777 19.1794 60.3393 19.5254C59.9178 19.8571 59.4153 20.0229 58.8317 20.0229C58.2481 20.0229 57.7375 19.8571 57.2998 19.5254C56.8783 19.1794 56.6676 18.7108 56.6676 18.1196C56.6676 17.5284 56.8783 17.067 57.2998 16.7354C57.7375 16.3893 58.2481 16.2163 58.8317 16.2163C59.4153 16.2163 59.9178 16.3893 60.3393 16.7354C60.777 17.067 60.9958 17.5284 60.9958 18.1196Z" fill="url(#paint5_linear)"/>
<path d="M64.3043 21.7964C64.9203 21.6378 65.7146 21.4936 66.6873 21.3639C67.6599 21.2197 68.6812 21.1476 69.7511 21.1476C70.8372 21.1476 71.7369 21.2774 72.4502 21.5369C73.1796 21.782 73.7551 22.1353 74.1766 22.5967C74.5981 23.0581 74.898 23.606 75.0763 24.2405C75.2546 24.8749 75.3438 25.5814 75.3438 26.3601V32.7837H71.7207V26.7494C71.7207 25.7112 71.5667 24.9758 71.2587 24.5433C70.9507 24.1107 70.3752 23.8944 69.5322 23.8944C69.2729 23.8944 68.9973 23.9088 68.7055 23.9377C68.4137 23.9521 68.1543 23.9737 67.9274 24.0025V32.7837H64.3043V21.7964Z" fill="url(#paint6_linear)"/>
<path d="M82.4894 25.5165C82.8461 25.1705 83.2108 24.81 83.5836 24.4351C83.9727 24.0602 84.3455 23.6925 84.7022 23.3321C85.0588 22.9572 85.3911 22.6039 85.6991 22.2723C86.0233 21.9406 86.2989 21.6522 86.5259 21.4071H90.8298C89.9706 22.2867 89.1277 23.1302 88.3009 23.9377C87.4904 24.7307 86.5988 25.5526 85.6262 26.4033C86.1125 26.7926 86.615 27.2612 87.1338 27.8092C87.6525 28.3427 88.155 28.8978 88.6414 29.4746C89.1277 30.0513 89.5735 30.6281 89.9787 31.2048C90.384 31.7816 90.7244 32.3079 91 32.7837H86.842C86.5826 32.4088 86.2827 31.9979 85.9423 31.5509C85.6181 31.0895 85.2696 30.6353 84.8967 30.1883C84.5239 29.7269 84.1267 29.2871 83.7052 28.869C83.3 28.4508 82.8947 28.0975 82.4894 27.8092V32.7837H78.8663V16.5191L82.4894 16V25.5165Z" fill="url(#paint7_linear)"/>
<defs>
<linearGradient id="paint0_linear" x1="91.4435" y1="15.6612" x2="12.2839" y2="47.7217" gradientUnits="userSpaceOnUse">
<stop stop-color="#F42D8D"/>
<stop offset="1" stop-color="#F4A52D" stop-opacity="0.94"/>
</linearGradient>
<linearGradient id="paint1_linear" x1="91.4435" y1="15.6612" x2="12.2839" y2="47.7217" gradientUnits="userSpaceOnUse">
<stop stop-color="#F42D8D"/>
<stop offset="1" stop-color="#F4A52D" stop-opacity="0.94"/>
</linearGradient>
<linearGradient id="paint2_linear" x1="91.4435" y1="15.6612" x2="12.2839" y2="47.7217" gradientUnits="userSpaceOnUse">
<stop stop-color="#F42D8D"/>
<stop offset="1" stop-color="#F4A52D" stop-opacity="0.94"/>
</linearGradient>
<linearGradient id="paint3_linear" x1="91.4435" y1="15.6612" x2="12.2839" y2="47.7217" gradientUnits="userSpaceOnUse">
<stop stop-color="#F42D8D"/>
<stop offset="1" stop-color="#F4A52D" stop-opacity="0.94"/>
</linearGradient>
<linearGradient id="paint4_linear" x1="91.4435" y1="15.6612" x2="12.2839" y2="47.7217" gradientUnits="userSpaceOnUse">
<stop stop-color="#F42D8D"/>
<stop offset="1" stop-color="#F4A52D" stop-opacity="0.94"/>
</linearGradient>
<linearGradient id="paint5_linear" x1="91.4435" y1="15.6612" x2="12.2839" y2="47.7217" gradientUnits="userSpaceOnUse">
<stop stop-color="#F42D8D"/>
<stop offset="1" stop-color="#F4A52D" stop-opacity="0.94"/>
</linearGradient>
<linearGradient id="paint6_linear" x1="91.4435" y1="15.6612" x2="12.2839" y2="47.7217" gradientUnits="userSpaceOnUse">
<stop stop-color="#F42D8D"/>
<stop offset="1" stop-color="#F4A52D" stop-opacity="0.94"/>
</linearGradient>
<linearGradient id="paint7_linear" x1="91.4435" y1="15.6612" x2="12.2839" y2="47.7217" gradientUnits="userSpaceOnUse">
<stop stop-color="#F42D8D"/>
<stop offset="1" stop-color="#F4A52D" stop-opacity="0.94"/>
</linearGradient>
</defs>
</svg>
