<svg width="96" height="48" viewBox="0 0 96 48" fill="none" xmlns="http://www.w3.org/2000/svg">
<path d="M15 19.5496H17.2163V31.8172H22.1795V19.5496H25.738V15.8038H22.1795V14.5552C22.1795 13.2441 22.9599 12.3701 24.1773 12.3701C24.6767 12.3701 25.3322 12.4326 25.8629 12.5886V8.53066C24.8952 8.21851 23.5842 8 22.4916 8C19.3077 8 17.2163 10.3724 17.2163 13.9621V15.8038H15V19.5496Z" fill="#865DCA"/>
<path d="M29.1071 35.126V38.5597C29.8874 38.8718 31.1673 39.0591 32.0725 39.0591C35.2877 39.0591 37.3791 36.281 38.815 32.4103L44.2776 17.9576V15.8038H39.9387L36.4114 25.7927L31.9164 15.8038H27.5775V17.9576L34.4449 32.0045C33.5708 34.0022 32.4783 35.3445 30.7303 35.3445C30.2932 35.3445 29.4816 35.2509 29.1071 35.126Z" fill="#865DCA"/>
<path d="M56.8396 15.2107C55.0291 15.2107 53.4683 16.2408 52.5631 17.864V15.8038H47.7872V31.8172H52.7504V23.3579C52.7504 21.1104 53.8741 19.5496 55.4661 19.5496C56.4338 19.5496 57.339 20.1115 57.6199 20.9231H60.0547V16.4281C59.4304 15.7101 58.1194 15.2107 56.8396 15.2107Z" fill="#865DCA"/>
<path d="M80 23.8261C80 18.7068 76.3478 15.1795 71.0725 15.1795C65.7659 15.1795 62.1449 18.7068 62.1449 23.8261C62.1449 28.9142 65.7659 32.4415 71.0725 32.4415C76.3478 32.4415 80 28.9142 80 23.8261ZM75.0368 23.8261C75.0368 26.3233 73.3824 28.0714 71.0725 28.0714C68.7313 28.0714 67.1081 26.3233 67.1081 23.8261C67.1081 21.2977 68.7313 19.5496 71.0725 19.5496C73.3824 19.5496 75.0368 21.2977 75.0368 23.8261Z" fill="#865DCA"/>
</svg>
