<svg width="96" height="48" viewBox="0 0 96 48" fill="none" xmlns="http://www.w3.org/2000/svg">
<path d="M15.6634 33.9424L15.5951 34.3415H16H32.5626H32.8503L32.8991 34.0579L33.652 29.6829L33.7207 29.2835H33.3154H24.5102L35.7052 17.2403L35.7745 17.1658L35.7917 17.0655L36.3068 14.0576L36.3751 13.6585H35.9702H19.4076H19.1199L19.0711 13.9421L18.3183 18.3171L18.2495 18.7165H18.6548H27.46L16.265 30.7597L16.1957 30.8342L16.1785 30.9345L15.6634 33.9424ZM57.3839 14.0567L57.451 13.6585H57.0472H51.5395H51.2502L51.2027 13.9439L49.5885 23.6371L44.4723 13.8419L44.3765 13.6585H44.1696H39.494H39.2053L39.1573 13.9433L35.7893 33.9433L35.7223 34.3415H36.126H41.6337H41.9221L41.9703 34.0571L43.6138 24.3718L48.7809 34.1594L48.877 34.3415H49.0829H53.6792H53.968L54.0159 34.0567L57.3839 14.0567ZM66.3753 13.9572L66.3376 13.6585H66.0366H59.8157H59.4127L59.4789 14.0561L62.8072 34.0561L62.8547 34.3415H63.1441H70.6725H70.8829L70.9775 34.1535L81.0419 14.1535L81.291 13.6585H80.7369H74.516H74.2979L74.2062 13.8564L68.0434 27.149L66.3753 13.9572Z" fill="#123E92" stroke="#123E92" stroke-width="0.682927"/>
</svg>
