<svg width="96" height="48" viewBox="0 0 96 48" fill="none" xmlns="http://www.w3.org/2000/svg">
<path fill-rule="evenodd" clip-rule="evenodd" d="M71.2185 22.8044C72.8323 33.7021 63.5334 42.9177 47.6092 46.4495C31.6851 49.9813 24 35.8633 24 22.8044C24 9.74557 34.7334 -0.544394 49.5817 1.19158C64.4299 2.92755 69.6047 11.9067 71.2185 22.8044ZM40.5156 16.5932C41.0216 16.7657 41.5161 16.9842 41.9991 17.2487L42.9478 15.3339C42.4418 15.0004 41.8668 14.7129 41.2228 14.4714C40.5903 14.2299 39.7623 14.1092 38.7388 14.1092C37.9568 14.1437 37.2668 14.3219 36.6688 14.6439C36.0708 14.9544 35.6051 15.3799 35.2716 15.9204C34.9496 16.4609 34.7886 17.0992 34.7886 17.8352C34.7886 18.4447 34.8978 18.9622 35.1163 19.3877C35.3463 19.8017 35.6396 20.1524 35.9961 20.4399C36.3641 20.7159 36.7551 20.9517 37.1691 21.1472C37.5831 21.3427 37.9856 21.5152 38.3766 21.6647C38.8826 21.8602 39.3138 22.1017 39.6703 22.3892C40.0383 22.6652 40.2223 22.9929 40.2223 23.3724C40.2223 23.7404 40.1188 24.0279 39.9118 24.2349C39.7163 24.4419 39.4633 24.5914 39.1528 24.6834C38.8538 24.7639 38.5548 24.8042 38.2558 24.8042C37.8073 24.8042 37.3013 24.7007 36.7378 24.4937C36.1743 24.2867 35.6741 24.0222 35.2371 23.7002L34.1331 25.6494C34.8001 26.1209 35.5073 26.4659 36.2548 26.6844C37.0138 26.9029 37.7556 27.0122 38.4801 27.0122C39.4231 27.0122 40.2166 26.8454 40.8606 26.5119C41.5046 26.1669 41.9933 25.7184 42.3268 25.1664C42.6603 24.6144 42.8271 24.0164 42.8271 23.3724C42.8271 22.5674 42.6776 21.9234 42.3786 21.4404C42.0796 20.9459 41.7001 20.5607 41.2401 20.2847C40.7801 19.9972 40.3028 19.7614 39.8083 19.5774C39.4058 19.4279 39.0148 19.2612 38.6353 19.0772C38.2673 18.8932 37.9626 18.6862 37.7211 18.4562C37.4911 18.2147 37.3761 17.9444 37.3761 17.6454C37.3761 17.2084 37.5313 16.8807 37.8418 16.6622C38.1523 16.4437 38.5778 16.3344 39.1183 16.3344C39.5553 16.3344 40.0211 16.4207 40.5156 16.5932ZM53.6085 15.3512C52.769 14.5692 51.5615 14.1782 49.986 14.1782H46.1392V26.8742H48.6405V22.8549H50.4345C51.2625 22.8549 51.9582 22.7284 52.5217 22.4754C53.0967 22.2109 53.551 21.8659 53.8845 21.4404C54.2295 21.0149 54.4767 20.5434 54.6262 20.0259C54.7872 19.4969 54.8677 18.9737 54.8677 18.4562C54.8677 17.1567 54.448 16.1217 53.6085 15.3512ZM51.5902 20.0949C51.3142 20.3134 50.9232 20.4227 50.4172 20.4227H48.6405V16.5932H50.4345C50.8715 16.5932 51.2165 16.6679 51.4695 16.8174C51.734 16.9669 51.9295 17.1509 52.056 17.3694C52.1825 17.5879 52.263 17.8064 52.2975 18.0249C52.3435 18.2319 52.3665 18.3987 52.3665 18.5252C52.3665 18.7437 52.309 19.0024 52.194 19.3014C52.079 19.6004 51.8777 19.8649 51.5902 20.0949ZM57.9683 14.1782H60.4695V26.8742H57.9683V14.1782ZM37.41 31.1083C37.41 31.429 37.5557 31.7336 37.8123 31.926C40.821 34.1824 44.3708 35.4854 48.1726 35.4854C52.1263 35.4854 55.8077 34.0761 58.8912 31.6507C59.1355 31.4585 59.2733 31.1625 59.2733 30.8516C59.2733 29.9289 58.1341 29.4324 57.392 29.9807C54.706 31.965 51.5481 33.1086 48.1692 33.1086C44.9269 33.1086 41.8883 32.0557 39.2747 30.2174C38.5259 29.6907 37.41 30.1929 37.41 31.1083Z" fill="url(#paint0_linear)"/>
<path fill-rule="evenodd" clip-rule="evenodd" d="M71.2185 22.8044C72.8323 33.7021 63.5334 42.9177 47.6092 46.4495C31.6851 49.9813 24 35.8633 24 22.8044C24 9.74557 34.7334 -0.544394 49.5817 1.19158C64.4299 2.92755 69.6047 11.9067 71.2185 22.8044ZM40.5156 16.5932C41.0216 16.7657 41.5161 16.9842 41.9991 17.2487L42.9478 15.3339C42.4418 15.0004 41.8668 14.7129 41.2228 14.4714C40.5903 14.2299 39.7623 14.1092 38.7388 14.1092C37.9568 14.1437 37.2668 14.3219 36.6688 14.6439C36.0708 14.9544 35.6051 15.3799 35.2716 15.9204C34.9496 16.4609 34.7886 17.0992 34.7886 17.8352C34.7886 18.4447 34.8978 18.9622 35.1163 19.3877C35.3463 19.8017 35.6396 20.1524 35.9961 20.4399C36.3641 20.7159 36.7551 20.9517 37.1691 21.1472C37.5831 21.3427 37.9856 21.5152 38.3766 21.6647C38.8826 21.8602 39.3138 22.1017 39.6703 22.3892C40.0383 22.6652 40.2223 22.9929 40.2223 23.3724C40.2223 23.7404 40.1188 24.0279 39.9118 24.2349C39.7163 24.4419 39.4633 24.5914 39.1528 24.6834C38.8538 24.7639 38.5548 24.8042 38.2558 24.8042C37.8073 24.8042 37.3013 24.7007 36.7378 24.4937C36.1743 24.2867 35.6741 24.0222 35.2371 23.7002L34.1331 25.6494C34.8001 26.1209 35.5073 26.4659 36.2548 26.6844C37.0138 26.9029 37.7556 27.0122 38.4801 27.0122C39.4231 27.0122 40.2166 26.8454 40.8606 26.5119C41.5046 26.1669 41.9933 25.7184 42.3268 25.1664C42.6603 24.6144 42.8271 24.0164 42.8271 23.3724C42.8271 22.5674 42.6776 21.9234 42.3786 21.4404C42.0796 20.9459 41.7001 20.5607 41.2401 20.2847C40.7801 19.9972 40.3028 19.7614 39.8083 19.5774C39.4058 19.4279 39.0148 19.2612 38.6353 19.0772C38.2673 18.8932 37.9626 18.6862 37.7211 18.4562C37.4911 18.2147 37.3761 17.9444 37.3761 17.6454C37.3761 17.2084 37.5313 16.8807 37.8418 16.6622C38.1523 16.4437 38.5778 16.3344 39.1183 16.3344C39.5553 16.3344 40.0211 16.4207 40.5156 16.5932ZM53.6085 15.3512C52.769 14.5692 51.5615 14.1782 49.986 14.1782H46.1392V26.8742H48.6405V22.8549H50.4345C51.2625 22.8549 51.9582 22.7284 52.5217 22.4754C53.0967 22.2109 53.551 21.8659 53.8845 21.4404C54.2295 21.0149 54.4767 20.5434 54.6262 20.0259C54.7872 19.4969 54.8677 18.9737 54.8677 18.4562C54.8677 17.1567 54.448 16.1217 53.6085 15.3512ZM51.5902 20.0949C51.3142 20.3134 50.9232 20.4227 50.4172 20.4227H48.6405V16.5932H50.4345C50.8715 16.5932 51.2165 16.6679 51.4695 16.8174C51.734 16.9669 51.9295 17.1509 52.056 17.3694C52.1825 17.5879 52.263 17.8064 52.2975 18.0249C52.3435 18.2319 52.3665 18.3987 52.3665 18.5252C52.3665 18.7437 52.309 19.0024 52.194 19.3014C52.079 19.6004 51.8777 19.8649 51.5902 20.0949ZM57.9683 14.1782H60.4695V26.8742H57.9683V14.1782ZM37.41 31.1083C37.41 31.429 37.5557 31.7336 37.8123 31.926C40.821 34.1824 44.3708 35.4854 48.1726 35.4854C52.1263 35.4854 55.8077 34.0761 58.8912 31.6507C59.1355 31.4585 59.2733 31.1625 59.2733 30.8516C59.2733 29.9289 58.1341 29.4324 57.392 29.9807C54.706 31.965 51.5481 33.1086 48.1692 33.1086C44.9269 33.1086 41.8883 32.0557 39.2747 30.2174C38.5259 29.6907 37.41 30.1929 37.41 31.1083Z" fill="url(#paint1_linear)" fill-opacity="0.5"/>
<defs>
<linearGradient id="paint0_linear" x1="3.22712" y1="27.1012" x2="99.3284" y2="38.1228" gradientUnits="userSpaceOnUse">
<stop offset="0.035305" stop-color="#00ACEE"/>
<stop offset="0.875652" stop-color="#00B478"/>
<stop offset="0.941545" stop-color="#00ACEE"/>
</linearGradient>
<linearGradient id="paint1_linear" x1="47.4792" y1="5.55209" x2="47.4792" y2="53.7084" gradientUnits="userSpaceOnUse">
<stop stop-color="white"/>
<stop offset="1" stop-color="white" stop-opacity="0"/>
</linearGradient>
</defs>
</svg>
