<svg width="64" height="65" viewBox="0 0 64 65" fill="none" xmlns="http://www.w3.org/2000/svg">
<path d="M20.3495 34.4129C20.0899 34.4129 19.8362 34.336 19.6203 34.1918C19.4045 34.0477 19.2363 33.8427 19.1369 33.6029C19.0375 33.3632 19.0114 33.0993 19.062 32.8447C19.1126 32.5901 19.2375 32.3563 19.421 32.1727L27.4565 24.1372C27.7039 23.898 28.0355 23.7657 28.3796 23.7686C28.7237 23.7715 29.0529 23.9095 29.2963 24.1528C29.5397 24.3961 29.6778 24.7253 29.6809 25.0694C29.684 25.4135 29.5517 25.7451 29.3127 25.9927L21.2772 34.0282C21.1556 34.1503 21.011 34.2472 20.8518 34.3132C20.6925 34.3792 20.5218 34.4131 20.3495 34.4129Z" fill="#1A1F4F"/>
<path d="M31.5747 45.639C31.3152 45.6388 31.0615 45.5617 30.8457 45.4174C30.63 45.2732 30.4618 45.0682 30.3625 44.8284C30.2631 44.5886 30.237 44.3248 30.2876 44.0702C30.3381 43.8156 30.4629 43.5817 30.6462 43.398L38.6817 35.3625C38.8036 35.2406 38.9483 35.1439 39.1076 35.0779C39.2668 35.012 39.4375 34.978 39.6099 34.978C39.7822 34.978 39.9529 35.012 40.1122 35.0779C40.2714 35.1439 40.4161 35.2406 40.538 35.3625C40.6599 35.4844 40.7566 35.6291 40.8225 35.7883C40.8885 35.9475 40.9224 36.1182 40.9224 36.2906C40.9224 36.463 40.8885 36.6336 40.8225 36.7929C40.7566 36.9521 40.6599 37.0968 40.538 37.2187L32.5025 45.2542C32.3809 45.3764 32.2363 45.4732 32.077 45.5393C31.9178 45.6053 31.7471 45.6392 31.5747 45.639Z" fill="#1A1F4F"/>
<path d="M1.36934 64.5248C1.10985 64.5247 0.856218 64.4476 0.640498 64.3034C0.424779 64.1592 0.256654 63.9543 0.157368 63.7145C0.0580815 63.4748 0.0320901 63.211 0.0826791 62.9564C0.133268 62.7019 0.258167 62.4681 0.441592 62.2846L4.64159 58.0846C4.88918 57.8455 5.22075 57.7133 5.56488 57.7164C5.90901 57.7194 6.23818 57.8575 6.48148 58.1009C6.72478 58.3443 6.86274 58.6735 6.86566 59.0177C6.86858 59.3618 6.73622 59.6933 6.49709 59.9408L2.29709 64.1408C2.17537 64.2628 2.03074 64.3595 1.87153 64.4254C1.71232 64.4913 1.54165 64.5251 1.36934 64.5248Z" fill="#1A1F4F"/>
<path d="M58.4027 7.68073C58.1432 7.6806 57.8895 7.60355 57.6738 7.45932C57.4581 7.3151 57.29 7.11016 57.1907 6.87041C57.0914 6.63067 57.0654 6.36687 57.116 6.11235C57.1666 5.85784 57.2915 5.62403 57.4749 5.44048L61.6749 1.24048C61.9245 1.01068 62.2534 0.886457 62.5926 0.893868C62.9318 0.901279 63.2549 1.03975 63.4943 1.28023C63.7336 1.52072 63.8705 1.84453 63.8762 2.18375C63.882 2.52298 63.7562 2.85125 63.5252 3.09973L59.3252 7.29973C59.0801 7.54367 58.7484 7.68066 58.4027 7.68073Z" fill="#1A1F4F"/>
<path d="M15.8807 28.6206L36.0461 48.786L27.4031 57.4291C25.7733 59.058 23.5633 59.973 21.259 59.9727C18.9547 59.9724 16.7449 59.0569 15.1156 57.4275L7.23926 49.5512C5.6099 47.9218 4.6944 45.712 4.6941 43.4078C4.6938 41.1035 5.60873 38.8935 7.23766 37.2637L15.8807 28.6206Z" fill="#8B92CE"/>
<path d="M25.2979 49.2944C25.1255 49.2946 24.9548 49.2608 24.7956 49.1947C24.6364 49.1287 24.4918 49.0318 24.3702 48.9097L15.6702 40.2097C15.548 40.0879 15.4511 39.9432 15.3849 39.784C15.3186 39.6247 15.2844 39.454 15.2842 39.2815C15.2839 39.1091 15.3177 38.9382 15.3834 38.7788C15.4492 38.6193 15.5458 38.4744 15.6675 38.3523C15.7893 38.2302 15.934 38.1332 16.0932 38.067C16.2525 38.0008 16.4232 37.9666 16.5957 37.9663C16.7682 37.9661 16.939 37.9998 17.0984 38.0656C17.2579 38.1314 17.4028 38.2279 17.5249 38.3497L26.2249 47.0497C26.4083 47.2334 26.5331 47.4673 26.5836 47.7219C26.6341 47.9765 26.608 48.2403 26.5087 48.4801C26.4093 48.7199 26.2412 48.9249 26.0254 49.0691C25.8096 49.2134 25.556 49.2905 25.2964 49.2907L25.2979 49.2944Z" fill="white"/>
<path d="M7.70996 50.0225L14.6483 56.9608L9.08968 62.5194L2.15135 55.5811L7.70996 50.0225Z" fill="#393F73"/>
<path d="M48.0947 36.7596L27.9292 16.5942L36.5723 7.95112C38.2021 6.32241 40.4121 5.40769 42.7162 5.40809C45.0204 5.40849 47.23 6.32398 48.8593 7.95324L56.7356 15.8296C58.3652 17.4592 59.2808 19.6695 59.2808 21.9741C59.2808 24.2788 58.3652 26.489 56.7356 28.1186L48.0925 36.7617L48.0947 36.7596Z" fill="#8B92CE"/>
<path d="M47.3718 27.4125C47.1994 27.4127 47.0287 27.3788 46.8695 27.3128C46.7103 27.2468 46.5657 27.1499 46.4441 27.0278L37.7441 18.3278C37.6221 18.2059 37.5254 18.0612 37.4594 17.9019C37.3934 17.7426 37.3594 17.5719 37.3594 17.3995C37.3593 17.2271 37.3933 17.0564 37.4592 16.8971C37.5252 16.7378 37.6218 16.5931 37.7437 16.4711C37.8656 16.3492 38.0103 16.2525 38.1696 16.1865C38.3288 16.1205 38.4995 16.0865 38.6719 16.0864C38.8443 16.0864 39.0151 16.1203 39.1744 16.1863C39.3337 16.2522 39.4784 16.3489 39.6003 16.4708L48.3003 25.1708C48.4836 25.3544 48.6084 25.5883 48.659 25.8428C48.7095 26.0973 48.6835 26.3611 48.5842 26.6008C48.485 26.8406 48.3169 27.0456 48.1013 27.1899C47.8856 27.3342 47.632 27.4114 47.3726 27.4118L47.3718 27.4125Z" fill="white"/>
<path d="M56.2703 15.3594L49.3319 8.42105L54.8906 2.86244L61.8289 9.80076L56.2703 15.3594Z" fill="#393F73"/>
</svg>
